<?xml version="1.0" encoding="UTF-8" standalone="no"?>
<svg width="14px" height="14px" viewBox="0 0 14 14" version="1.1" xmlns="http://www.w3.org/2000/svg" xmlns:xlink="http://www.w3.org/1999/xlink">
    <!-- Generator: Sketch 39.1 (31720) - http://www.bohemiancoding.com/sketch -->
    <title></title>
    <desc>Created with Sketch.</desc>
    <defs></defs>
    <g id="Welcome" stroke="none" stroke-width="1" fill="none" fill-rule="evenodd">
        <g id="Desktop" transform="translate(-612.000000, -377.000000)" fill="#2CBACC">
            <g id="hero-event-info" transform="translate(612.000000, 373.000000)">
                <path d="M0.5625,6.1875 L0.5625,8.4375 L12.9375,8.4375 L12.9375,6.1875 L0.5625,6.1875 Z M10.125,5.625 L13.5,5.625 L13.5,18 L0,18 L0,5.625 L3.375,5.625 L3.375,4.5 L3.9375,4.5 L3.9375,5.625 L9.5625,5.625 L9.5625,4.5 L10.125,4.5 L10.125,5.625 Z M12.9375,17.4375 L12.9375,9 L0.5625,9 L0.5625,17.4375 L12.9375,17.4375 Z M0.5625,8.4375 L0.5625,6.1875 L3.375,6.1875 L3.375,7.3125 L3.9375,7.3125 L3.9375,6.1875 L9.5625,6.1875 L9.5625,7.3125 L10.125,7.3125 L10.125,6.1875 L12.9375,6.1875 L12.9375,8.4375 L0.5625,8.4375 Z" id=""></path>
            </g>
        </g>
    </g>
</svg>