<?xml version="1.0" encoding="utf-8"?>
<!-- Generator: Adobe Illustrator 18.1.0, SVG Export Plug-In . SVG Version: 6.00 Build 0)  -->
<!DOCTYPE svg PUBLIC "-//W3C//DTD SVG 1.1//EN" "http://www.w3.org/Graphics/SVG/1.1/DTD/svg11.dtd">
<svg version="1.1" id="Layer_1" xmlns="http://www.w3.org/2000/svg" xmlns:xlink="http://www.w3.org/1999/xlink" x="0px" y="0px"
	 viewBox="0 0 151 27" enable-background="new 0 0 167 27" xml:space="preserve">
<g id="LOGO">
	<path fill="#ffffff" d="M0.4,0h9.3c7.3,0,8.7,4.8,8.7,13.1c0,4.1,0.6,13.4-8.9,13.4H0.4V0z M6,22.3h2.7c3.4,0,4.1-2.4,4.1-9
		c0-4.9,0-9-3.9-9H6V22.3z"/>
	<path fill="#ffffff" d="M17.7,26.6L25.1,0h7.3l7.2,26.6h-5.9l-1.5-5.8h-7.6l-1.5,5.8H17.7z M28.5,5L28.5,5l-2.6,11.7h5.3L28.5,5z"
		/>
	<polygon fill="#ffffff" points="35.2,0 41,0 45.2,19.1 45.2,19.1 49.9,0 55.4,0 48.3,26.6 41.8,26.6 	"/>
	<polygon fill="#ffffff" points="57,0 62.5,0 62.5,26.6 57,26.6 	"/>
	<path fill="#ffffff" d="M64.7,0h9.1c7.3,0,8.7,4.8,8.7,13.1c0,4.1,0.6,13.4-8.9,13.4h-8.9V0z M70,22.3h2.8c3.4,0,4.1-2.4,4.1-9
		c0-4.9,0-9-3.9-9h-3V22.3z"/>
	<polygon fill="#ffffff" points="110.6,0 110.6,4.5 103.7,4.5 103.7,26.6 98.4,26.6 98.4,4.5 90.7,4.5 90.7,0 	"/>
	<polygon fill="#ffffff" points="111.9,26.6 111.9,0 126.5,0 126.5,4.2 117.8,4.2 117.8,10.6 126,10.6 126,14.6 117.8,14.6 
		117.8,22.3 126.8,22.3 126.8,26.6 	"/>
	<path fill="#ffffff" d="M128.2,26.6L135.6,0h7.3l7.2,26.6h-5.9l-1.5-5.8h-7.6l-1.5,5.8H128.2z M139,5L139,5l-2.6,11.7h5.3L139,5z"
		/>
	<path fill="#ffffff" d="M88.5,20.4c0,0.5,0,1.6,0.2,2.2c0.2,0.6,0.7,0.8,1.6,0.8c0.8,0,1.6-0.7,1.6-1.9c0-3.9-7.6-3-7.6-8.9
		c0-4,3.3-5.2,6.1-5.2c2.9,0,5.6,1.9,5.3,5.6h-4.2c0-1.3-0.1-2-0.4-2.3c-0.3-0.3-0.6-0.4-1.1-0.4c-1,0-1.5,0.7-1.5,2
		c0,2.9,7.6,2.8,7.6,8.7c0,3.2-2.2,5.7-5.8,5.7c-3.8,0-6.3-1.2-6-6.2H88.5z"/>
</g>
</svg>
