<?xml version="1.0" encoding="utf-8"?>
<!-- Generator: Adobe Illustrator 16.0.0, SVG Export Plug-In . SVG Version: 6.00 Build 0)  -->
<!DOCTYPE svg PUBLIC "-//W3C//DTD SVG 1.1//EN" "http://www.w3.org/Graphics/SVG/1.1/DTD/svg11.dtd">
<svg version="1.1" id="svg5654" xmlns:svg="http://www.w3.org/2000/svg"
	 xmlns="http://www.w3.org/2000/svg" xmlns:xlink="http://www.w3.org/1999/xlink" x="0px" y="0px" width="600px" height="240px"
	 viewBox="0 0 600 240" enable-background="new 0 0 600 240" xml:space="preserve">
<g id="g5749" transform="matrix(1.25,0,0,-1.25,208.28787,205.30062)">
	<path id="path5751" fill="#FFFFFF" d="M0,0c2.106-0.142,2.987-0.284,3.981-0.682C7.026-1.906,7.907-4.72,8.163-5.774
		c0.313-1.25,0.313-2.161,0.313-2.673c0-0.994-0.029-4.01-1.991-6.398c-1.422-1.68-3.214-2.389-5.348-2.589
		c-0.568-0.027-1.108-0.056-1.677-0.056c-0.54,0-1.081,0-1.65,0.029c-0.824,0.027-1.677,0.085-2.532,0.169
		c-0.056,0.512-0.085,1.025-0.112,1.537c-0.03,0.881,0,1.792,0,2.674c0.027,2.02-0.03,4.009-0.03,6c0,2.334,0.057,4.637,0.115,6.968
		L0,0z M-0.54,1.337c-1.45-0.028-2.873-0.114-4.294-0.114c-0.996,0-1.993,0.058-2.987,0.114c0.055-1.564,0.114-3.13,0.14-4.694
		c0.059-1.82,0.086-3.639,0.086-5.459c0-1.763,0-3.498-0.055-5.262c-0.031-1.564-0.116-3.129-0.257-4.664
		c1.024,0.028,2.019,0.056,3.014,0.028c1.224-0.028,2.391-0.086,3.585-0.114c0.854-0.028,1.706,0.028,2.56,0.058
		c0.483,0.028,2.303,0.141,3.896,0.711c1.934,0.683,3.213,1.82,3.754,2.361c1.11,1.109,2.817,3.413,2.817,7.395
		c0,4.125-1.935,6.428-3.186,7.479C6.4,0.968,3.839,1.166,2.901,1.252l-1.28,0.085H-0.54z"/>
</g>
<g id="g5753" transform="matrix(1.25,0,0,-1.25,231.998,205.76187)">
	<path id="path5755" fill="#FFFFFF" d="M0,0c1.081,0,2.161,0.029,3.242,0.029C4.693,0,6.143-0.114,7.594-0.256
		C7.48,0.569,7.509,0.796,7.737,1.592C5.546,1.479,3.385,1.337,1.166,1.337c-1.394,0-2.816,0.085-4.211,0.17
		c0.287-1.963,0.172-2.389,0.202-3.554c0.027-1.139,0.055-2.248,0.055-3.358c0-2.105-0.028-4.18-0.055-6.256
		c0-0.825,0-1.649-0.03-2.475c0-0.655,0.03-1.336,0-1.991c-0.029-0.798-0.114-1.537-0.172-2.305
		c1.452,0.058,2.874,0.086,4.324,0.086c2.248,0,4.466-0.086,6.684-0.198c-0.085,0.54-0.114,0.625-0.114,0.938
		c0,0.37,0.058,0.682,0.086,0.827c-0.853-0.03-1.678-0.086-2.531-0.116c-1.82-0.056-3.613-0.056-5.432-0.056v8.391
		C0.54-8.504,1.138-8.476,1.735-8.476c0.54,0,1.081-0.027,1.62-0.027C4.124-8.532,4.864-8.532,5.603-8.59
		c0.455-0.027,0.91-0.084,1.393-0.169C6.912-7.935,6.912-7.707,7.053-6.912C6.4-6.968,5.717-7.081,5.062-7.11
		C4.608-7.14,4.181-7.14,3.726-7.14c-1.223,0-2.475,0-3.698-0.027L0,0z"/>
</g>
<g id="g5757" transform="matrix(1.25,0,0,-1.25,250.42925,205.263)">
	<path id="path5759" fill="#FFFFFF" d="M0-0.001c2.788,0.114,4.01,0.086,5.233-0.655C6.428-1.451,6.94-2.618,6.94-4.04
		c0-1.08-0.342-2.161-1.025-3.014C4.779-8.477,3.299-8.676,0-8.59V-0.001z M-2.844-1.707c0.085-2.191,0.085-4.352,0.085-6.514
		c0-2.019,0.029-4.038-0.029-6.057c-0.028-1.509-0.142-3.016-0.284-4.523c0.597,0.084,1.052,0.172,1.678,0.172
		c0.484,0,0.796-0.058,1.678-0.202c-0.028,0.484-0.085,0.969-0.142,1.45c-0.057,0.825-0.057,1.68-0.057,2.505
		c-0.028,1.677-0.057,3.384-0.057,5.062C0.625-9.841,1.251-9.87,1.848-9.87c1.963-0.028,4.466,0.455,6.087,1.705
		c1.309,1.026,2.105,2.617,2.105,4.295c0,1.423-0.483,2.389-0.768,2.816C8.704-0.115,7.594,0.939,5.12,1.193
		C4.721,1.251,4.323,1.251,3.896,1.279C2.588,1.251,1.308,1.193,0,1.193c-0.996,0-2.02,0.029-3.016,0.086L-2.844-1.707z"/>
</g>
<g id="g5761" transform="matrix(1.25,0,0,-1.25,285.48037,205.65563)">
	<path id="path5763" fill="#FFFFFF" d="M0,0c0.086-2.162,0.199-4.323,0.199-6.484c0-1.48-0.056-2.93-0.084-4.38
		C0-12.259-0.113-12.912-0.34-13.538c-0.483-1.366-2.02-3.84-5.747-3.84c-3.553,0-4.976,2.191-5.431,3.584
		c-0.456,1.28-0.511,3.016-0.541,3.357C-12.087-8.219-12.145-6-12.087-3.811c0.028,1.763,0.143,3.555,0.284,5.319
		c-0.539-0.027-1.08-0.058-1.592-0.058c-0.597,0-1.168,0.058-1.736,0.086c0.059-1.252,0.143-2.502,0.17-3.783
		c0.058-1.167,0.03-2.303,0.03-3.47c0-1.878,0-3.754-0.03-5.631c0.115-1.905,0.229-2.644,0.627-3.555
		c0.142-0.312,0.427-0.967,1.025-1.622c2.19-2.389,5.887-2.416,6.625-2.416c3.272,0,4.978,0.938,6.116,1.933
		c0.767,0.684,1.849,1.963,2.275,4.438c0.086,0.541,0.114,1.081,0.171,1.622c0.028,0.882,0.028,1.792,0.057,2.673
		c0.029,1.82,0.029,3.667,0.114,5.487c0.056,1.45,0.198,2.873,0.342,4.295C1.964,1.48,1.537,1.45,1.11,1.45
		c-0.426,0-0.854,0.03-1.28,0.086L0,0z"/>
</g>
<g id="g5765" transform="matrix(1.25,0,0,-1.25,298.188,203.77174)">
	<path id="path5767" fill="#FFFFFF" d="M0,0c-0.598-0.057-1.024-0.113-1.65-0.113c-0.513,0-0.797,0.028-1.679,0.142
		c0.058-0.627,0.115-1.281,0.143-1.934c0.114-1.622,0.142-3.3,0.142-4.95c0-1.08-0.028-2.133-0.028-3.184c0-1.736,0-3.47-0.03-5.205
		c0-1.622-0.084-3.214-0.197-4.808c0.91,0.114,1.194,0.142,1.705,0.142c0.57,0,1.139-0.056,1.707-0.114
		c-0.085,0.825-0.17,1.652-0.227,2.503c-0.085,1.337-0.085,2.674-0.085,4.039c-0.029,1.935-0.057,3.869-0.057,5.802
		c0,1.052,0,2.105,0.028,3.186C-0.171-3.015-0.086-1.507,0,0"/>
</g>
<g id="g5769" transform="matrix(1.25,0,0,-1.25,303.69037,223.96424)">
	<path id="path5771" fill="#FFFFFF" d="M0,0C-0.114-1.224-0.172-1.394-0.597-2.56c1.222-0.797,2.388-1.649,5.376-1.649
		c0.653,0,2.446,0,4.152,0.995c0.907,0.541,3.13,2.22,3.155,5.375c0,1.395-0.484,2.873-1.448,3.784
		C9.357,7.196,7.027,7.764,5.461,8.419c-1.423,0.569-2.104,1.08-2.56,1.677c-0.2,0.256-0.655,0.939-0.655,1.878
		c0,1.164,0.854,3.27,3.699,3.27c1.905,0,2.873-0.825,3.327-1.395c0.314-0.369,0.709-1.023,0.738-1.08l0.372-0.028
		c0.313,1.336,0.483,1.706,0.795,2.389c-1.05,0.569-1.848,0.966-2.988,1.166C7.51,16.41,6.741,16.41,6.542,16.41
		c-2.759,0-4.152-0.767-5.063-1.622c-1.564-1.45-1.762-3.184-1.762-4.009c0-1.791,0.88-3.271,2.359-4.18
		c0.656-0.398,1.708-0.883,3.357-1.509c1.025-0.398,2.048-0.683,2.902-1.45c1.082-0.938,1.195-2.077,1.195-2.646
		c0-1.337-0.74-3.953-4.181-3.982c-0.882,0-1.534,0.171-1.851,0.285C2.105-2.275,1.451-1.479,1.081-1.024
		C0.824-0.711,0.597-0.37,0.341,0H0z"/>
</g>
<g id="g5773" transform="matrix(1.25,0,0,-1.25,340.48912,203.7355)">
	<path id="path5775" fill="#FFFFFF" d="M0,0c-0.425-0.341-0.883-0.627-1.309-0.938c-0.482-0.284-0.966-0.598-1.45-0.882
		l-4.152-2.048L-9.13-4.721l1.364-1.28c0.484,0.342,0.97,0.653,1.452,0.966c1.195,0.769,2.447,1.48,3.724,2.161
		c0.03-1.362,0.059-2.729,0.087-4.065c0-2.334-0.058-4.664-0.058-6.997c0-3.556,0.113-3.841-0.227-6.03
		c0.197,0,0.909,0.141,1.563,0.141c0.512,0,1.052-0.084,1.535-0.17c-0.054,1.422-0.085,2.872-0.112,4.295
		C0.172-13.51,0.14-11.348,0.14-9.158c0,1.791,0,3.555,0.032,5.319c0.027,1.223,0.086,2.417,0.17,3.613L0,0z"/>
</g>
<g id="g5777" transform="matrix(1.25,0,0,-1.25,351.29038,209.45799)">
	<path id="path5779" fill="#FFFFFF" d="M0,0c0.088,2.103,0.998,2.929,1.85,3.27c0.145,0.027,0.598,0.2,1.11,0.2
		c0.911,0,1.452-0.398,1.735-0.627c0.968-0.768,1.166-1.792,1.166-3.014c0.028-1.907-0.823-2.845-1.508-3.243
		C3.927-3.67,3.387-3.841,2.875-3.841c-0.682,0-1.252,0.227-1.764,0.683C-0.111-2.078-0.026-0.483,0,0 M-0.765-9.414
		c0,0.426,0.056,2.957,1.79,4.037C1.652-4.978,2.363-4.835,3.13-4.835c0.712,0,1.139-0.143,1.395-0.256
		c0.598-0.286,0.97-0.684,1.109-0.884c0.541-0.596,1.166-1.705,1.166-3.61c0-2.475-1.022-3.925-1.846-4.494
		c-0.74-0.513-1.537-0.57-1.878-0.57c-1.168,0-1.964,0.541-2.307,0.827c-0.48,0.426-0.709,0.795-0.852,1.023
		C-0.624-11.833-0.794-10.524-0.765-9.414 M1.081-4.21c-1.165-0.398-1.705-0.625-2.246-0.94c-2.358-1.392-2.501-3.725-2.501-4.663
		c0-2.702,1.478-4.75,4.009-5.547c1.081-0.341,2.105-0.341,2.532-0.341c0.882,0,3.641,0.084,5.46,2.218
		c0.911,1.08,1.452,2.533,1.452,4.011c0,0.399-0.03,1.308-0.482,2.305C8.934-6.286,8.196-5.15,6.089-4.495
		C5.747-4.38,5.349-4.267,4.981-4.183c1.42,0.598,2.53,1.082,3.242,2.588c0.342,0.741,0.396,1.423,0.396,1.736
		c0,0.627-0.112,1.137-0.341,1.678c-0.115,0.255-0.368,0.825-0.94,1.336C6.258,4.123,4.44,4.464,3.018,4.464
		c-2.93,0-4.323-1.138-5.036-2.247c-0.623-0.939-0.709-1.875-0.709-2.303c0-0.826,0.255-1.48,0.397-1.764
		C-1.449-3.783,0.457-4.068,1.081-4.21"/>
</g>
<g id="g5781" transform="matrix(1.25,0,0,-1.25,368.63912,219.59063)">
	<path id="path5783" fill="#FFFFFF" d="M0,0c1.196,1.791,2.389,3.612,3.614,5.403c0.968,1.395,1.963,2.758,2.988,4.123V0H0z
		 M8.99,0.056c0,1.65,0,3.3,0.028,4.949c0,2.445,0.059,4.862,0.113,7.309c-0.566-0.056-0.882-0.086-1.166-0.086
		c-0.342,0-0.682,0.03-1.024,0.057L-2.217-1.111v-0.796h8.76v-2.161c-0.03-1.109-0.085-2.219-0.141-3.328
		c0.511,0.057,0.823,0.114,1.364,0.114c0.484,0,0.627-0.028,1.393-0.114C9.132-6.543,9.077-5.661,9.048-4.78
		c-0.03,0.938-0.03,1.907-0.058,2.873c0.509,0,1.023,0.03,1.537,0.03c0.652,0,0.967-0.142,1.252-0.256
		c-0.088,0.655-0.116,0.795-0.116,1.167c0,0.341,0.028,0.68,0.083,1.023H8.99z"/>
</g>
<g id="g5785" transform="matrix(1.25,0,0,-1.25,386.27037,224.92425)">
	<path id="path5787" fill="#FFFFFF" d="M0,0c0.03-0.967,0-1.223-0.339-2.163c1.876-0.967,2.616-1.222,4.635-1.222
		c1.054,0,1.678,0.085,2.159,0.198c3.075,0.681,5.52,3.128,5.52,6.486c0,3.355-2.388,4.664-3.525,5.09
		C7.454,8.759,6.571,8.788,6.203,8.788c-1.566,0-3.159-0.625-3.555-0.767v6.172c1.138,0.027,2.273,0.086,3.413,0.113
		c1.648,0.028,3.298-0.027,4.919-0.086c-0.029,0.37-0.084,0.826-0.084,1.195s0.03,0.569,0.144,1.252
		c-2.249-0.142-4.495-0.286-6.771-0.286c-1.138,0-2.275,0.058-3.384,0.144l0.254-1.935c0.087-1.449,0.202-2.928,0.202-4.38
		c0-1.251-0.086-2.473-0.143-3.725l0.425-0.227c1.027,0.681,1.791,1.166,3.073,1.166c1.706,0,3.242-1.026,3.897-2.673
		c0.311-0.797,0.341-1.536,0.341-1.849c0-0.768-0.227-3.698-2.702-4.778c-0.796-0.342-1.536-0.37-1.876-0.37
		c-0.569,0-1.994,0.114-3.158,1.223C0.711-0.569,0.342-0.029,0.201,0.143L0,0z"/>
</g>
<g id="g5789" transform="matrix(1.25,0,0,-1.25,74.05788,164.87438)">
	<path id="path5791" fill="#FFFFFF" d="M0,0c-0.824-1.622-1.621-3.27-2.474-4.892C-3.327-6.541-4.18-8.161-5.033-9.811
		c-0.683-1.309-1.337-2.645-2.049-3.925c-0.369-0.684-0.768-1.309-1.165-1.962c-0.883,1.507-1.792,3.043-2.646,4.579
		c-0.967,1.735-1.906,3.47-2.872,5.233c-0.626,1.165-1.309,2.332-1.934,3.527c-0.398,0.768-0.797,1.592-1.138,2.389
		c-0.625-0.085-0.768-0.03-1.138,0c-0.682-5.575-1.337-11.177-2.304-16.666c-0.227-1.225-0.455-2.389-0.71-3.613
		c0.596,0.113,0.739,0.113,1.081,0.113c0.596,0,1.109-0.142,1.308-0.198c0.084,1.535,0.143,3.1,0.285,4.635
		c0.114,1.621,0.284,3.214,0.483,4.834c0.17,1.822,0.37,3.641,0.568,5.461c1.024-1.877,2.076-3.783,3.129-5.661
		c0.882-1.591,1.82-3.212,2.645-4.834c0.768-1.477,1.421-2.958,2.077-4.466h0.852c0.228,0.627,0.456,1.252,0.711,1.85
		c0.286,0.625,0.57,1.222,0.882,1.848c1.878,3.84,3.868,7.68,5.86,11.519c0.398-2.957,0.795-5.916,1.081-8.873
		c0.198-2.105,0.34-4.182,0.454-6.286c0.854,0.142,1.109,0.17,1.593,0.17c0.512,0,0.911-0.056,1.878-0.256
		c-0.142,0.683-0.314,1.367-0.427,2.048c-0.171,1.024-0.255,2.077-0.426,3.1c-0.144,1.166-0.342,2.333-0.484,3.498
		C2.304-9.87,2.077-7.962,1.822-6.087C1.678-4.863,1.48-3.641,1.338-2.417C1.252-1.622,1.195-0.796,1.138,0H0z"/>
</g>
<g id="g5793" transform="matrix(1.25,0,0,-1.25,87.31912,178.95312)">
	<path id="path5795" fill="#FFFFFF" d="M0,0c0.54,1.309,1.052,2.589,1.621,3.898c0.483,1.137,1.051,2.245,1.592,3.355L6.456,0H0z
		 M3.327,11.122C2.872,9.956,2.389,8.818,1.876,7.681C1.193,6.115,0.483,4.58-0.2,3.016c-0.939-2.133-1.849-4.266-2.788-6.398
		c-0.881-1.878-1.79-3.755-2.701-5.603C-5.12-8.93-4.751-8.901-4.495-8.901c0.37,0,0.597-0.029,1.252-0.143
		c0.739,2.589,0.966,3.384,2.645,7.566c1.395,0.057,2.76,0.114,4.153,0.114c1.165,0,2.332-0.029,3.498-0.057
		c1.906-4.238,2.162-5.091,2.987-7.68c0.938,0.171,1.364,0.227,1.82,0.227c0.541,0,0.91-0.056,1.877-0.198
		c-0.483,0.909-0.967,1.82-1.422,2.786c-0.541,1.166-1.024,2.389-1.536,3.584c-0.654,1.508-1.338,2.987-2.02,4.522
		c-0.597,1.337-1.166,2.73-1.792,4.066C6.512,6.854,6.029,7.794,5.602,8.732c-0.341,0.768-0.654,1.565-0.939,2.36L3.327,11.122z"/>
</g>
<g id="g5797" transform="matrix(1.25,0,0,-1.25,108.21663,157.72674)">
	<path id="path5799" fill="#FFFFFF" d="M0,0l-3.726-4.523h1.053l3.298,2.675l3.329-2.645h0.881L1.507,0H0z M2.39-6.03
		C1.792-6.088,1.365-6.144,0.739-6.144c-0.512,0-0.795,0.028-1.677,0.141c0.056-0.626,0.114-1.279,0.142-1.933
		c0.115-1.621,0.142-3.3,0.142-4.949c0-1.081-0.027-2.134-0.027-3.186c0-1.734,0-3.469-0.031-5.205c0-1.621-0.084-3.212-0.198-4.807
		C0-25.967,0.285-25.94,0.797-25.94c0.568,0,1.137-0.056,1.706-0.112c-0.086,0.823-0.171,1.648-0.228,2.502
		C2.19-22.214,2.19-20.877,2.19-19.511c-0.028,1.934-0.057,3.867-0.057,5.801c0,1.053,0,2.105,0.029,3.185
		C2.219-9.045,2.304-7.537,2.39-6.03"/>
</g>
<g id="g5801" transform="matrix(1.25,0,0,-1.25,133.77037,165.15688)">
	<path id="path5803" fill="#FFFFFF" d="M0,0.001c-0.824-0.086-1.649-0.173-2.474-0.228c-1.052-0.058-2.105-0.086-3.157-0.086
		c-1.366-0.028-2.731-0.028-4.096-0.028c-1.052,0-2.104,0-3.156,0.056c-0.995,0.058-1.991,0.141-2.987,0.227
		c0.113-0.568,0.142-0.768,0.142-1.08c0-0.258-0.057-0.655-0.084-0.911c0.938,0.087,1.877,0.172,2.785,0.228
		c1.252,0.056,2.476,0.056,3.727,0.056c0.029-2.787,0.057-5.545,0.057-8.333c-0.028-3.327-0.114-6.654-0.227-9.955
		c0.824,0.086,0.995,0.115,1.478,0.115c0.513,0,0.825-0.029,1.792-0.17c-0.056,1.136-0.142,2.246-0.17,3.384
		c-0.086,1.734-0.057,3.498-0.028,5.234c0,1.736-0.029,3.498-0.029,5.233c0,1.509,0.057,2.987,0.085,4.493
		c0.996,0,1.992-0.028,2.957-0.028c1.821-0.028,2.219-0.056,3.299-0.284c-0.113,0.54-0.141,0.68-0.141,0.968
		C-0.227-0.655-0.057-0.114,0,0.001"/>
</g>
<g id="g5805" transform="matrix(1.25,0,0,-1.25,140.23412,166.93438)">
	<path id="path5807" fill="#FFFFFF" d="M0,0c0.711,0.056,1.394,0.112,2.105,0.112c0.682,0,1.45-0.055,2.077-0.227
		c0.937-0.256,2.729-1.024,2.729-3.613c0-2.645-1.932-3.583-2.787-3.895C2.561-8.163,0.199-8.022-0.085-8.022
		c-0.029,1.224-0.029,2.447-0.029,3.641C-0.114-2.902-0.057-1.452,0,0 M-3.073,1.392c0.058-0.853,0.115-1.735,0.172-2.617
		c0.085-1.591,0.085-3.185,0.085-4.777v-2.475c-0.029-1.762-0.029-3.498-0.085-5.233c-0.029-1.648-0.172-3.298-0.342-4.976
		c0.541,0.055,1.081,0.112,1.622,0.112c0.654,0,1.109-0.056,1.735-0.142C0.057-18.005,0-17.294-0.028-16.555
		c-0.029,0.827-0.029,1.651-0.029,2.504c0,1.678,0,3.386-0.028,5.062l0.654,0.114c1.423-1.764,2.844-3.528,4.209-5.319
		c1.109-1.479,2.163-2.988,3.214-4.523c0.654,0.086,1.28,0.142,1.934,0.142c0.683,0,1.336-0.084,2.018-0.142l0.03,0.314
		c-1.337,1.508-2.674,3.044-3.925,4.609c-1.366,1.649-2.645,3.355-3.953,5.062c1.62,0.341,3.099,0.627,4.294,1.791
		c1.366,1.337,1.564,2.873,1.593,3.555c0,0.939-0.342,1.906-0.883,2.674C7.906,0.995,5.944,1.137,5.261,1.194
		C4.921,1.223,4.55,1.25,4.21,1.25h-5.49L-3.073,1.392z"/>
</g>
<g id="g5809" transform="matrix(1.25,0,0,-1.25,162.32662,167.25562)">
	<path id="path5811" fill="#FFFFFF" d="M0,0c1.082,0,2.163,0.03,3.244,0.03C4.694,0,6.145-0.114,7.595-0.256
		C7.482,0.57,7.509,0.796,7.737,1.594c-2.19-0.114-4.351-0.256-6.57-0.256c-1.393,0-2.816,0.084-4.209,0.17
		c0.284-1.962,0.17-2.388,0.198-3.555c0.029-1.137,0.058-2.248,0.058-3.357c0-2.104-0.029-4.18-0.058-6.255
		c0-0.827,0-1.652-0.028-2.475c0-0.655,0.028-1.336,0-1.992c-0.029-0.797-0.114-1.536-0.17-2.302
		c1.45,0.055,2.872,0.085,4.323,0.085c2.247,0,4.466-0.085,6.684-0.202c-0.085,0.541-0.114,0.627-0.114,0.939
		c0,0.37,0.057,0.683,0.086,0.825c-0.854-0.027-1.68-0.083-2.532-0.112c-1.821-0.057-3.613-0.057-5.433-0.057v8.389
		c0.569,0.058,1.167,0.087,1.764,0.087c0.54,0,1.081-0.029,1.621-0.029c0.768-0.029,1.508-0.029,2.247-0.085
		c0.456-0.028,0.91-0.086,1.394-0.17C6.913-7.935,6.913-7.706,7.054-6.913C6.401-6.968,5.718-7.081,5.063-7.11
		C4.609-7.138,4.182-7.138,3.727-7.138c-1.223,0-2.476,0-3.697-0.03L0,0z"/>
</g>
<g id="g5813" transform="matrix(1.25,0,0,-1.25,205.32912,169.85062)">
	<path id="path5815" fill="#FFFFFF" d="M0,0c0.115,1.308,0.2,1.564,0.597,2.787c-1.308,0.513-3.64,1.48-7.139,1.48
		c-4.039,0-8.191-1.48-10.097-5.32c-1.024-2.075-1.079-4.209-1.079-5.032c0-3.529,1.221-5.747,2.075-6.798
		c1.279-1.622,3.925-3.697,8.675-3.697c2.731,0,4.751,0.709,5.688,1.136c0.654,0.314,1.48,0.855,1.621,0.939
		c0.058,0.967,0.058,1.08,0.314,2.02l-0.399,0.228c-1.478-1.28-2.473-2.162-4.352-2.645c-0.995-0.257-1.877-0.285-2.247-0.285
		c-3.754,0-5.66,2.048-6.484,3.299c-1.537,2.305-1.594,5.177-1.594,6.059c0,3.838,1.508,5.944,2.674,7.025
		c1.934,1.762,3.926,1.848,4.922,1.848c2.701,0,4.237-0.91,5.118-1.648C-1.194,0.995-0.739,0.484-0.34,0H0z"/>
</g>
<g id="g5817" transform="matrix(1.25,0,0,-1.25,227.78038,186.59424)">
	<path id="path5819" fill="#FFFFFF" d="M0,0c0-1.225-0.029-1.766-0.227-2.931c0.568,0.084,1.024,0.17,1.621,0.17
		c0.512,0,0.825-0.027,1.735-0.17C3.072-2.078,2.987-1.225,2.958-0.371c-0.114,1.68-0.142,3.356-0.142,5.063
		c0,1.906,0.028,3.784,0.085,5.689c0.028,1.364,0,2.759,0.057,4.123c0.029,0.881,0.114,1.763,0.228,2.647
		c-0.91-0.114-1.28-0.145-1.735-0.145c-0.569,0-1.081,0.059-1.622,0.086c0.058-0.938,0.114-1.877,0.142-2.816
		c0.086-1.876,0.058-3.753,0.058-5.63C-1.82,8.589-3.669,8.558-5.518,8.558c-1.934,0-3.867,0.059-5.802,0.116
		c-0.029,1.308-0.056,2.588-0.029,3.895c0.029,1.48,0.143,2.959,0.285,4.437c-0.54-0.027-1.053-0.084-1.564-0.084
		c-0.654,0-1.109,0.084-1.792,0.17c0.086-0.91,0.2-1.848,0.228-2.758c0.057-0.911,0.057-1.851,0.057-2.758v-5.32
		c0-1.791,0-3.584-0.057-5.347c-0.057-1.28-0.142-2.559-0.256-3.84c0.882,0.143,1.138,0.17,1.62,0.17
		c0.598,0,1.082-0.086,1.679-0.17c-0.086,1.365-0.171,2.73-0.2,4.095c-0.056,1.934,0,3.869,0.029,5.802
		c1.991,0.057,4.011,0.085,6.002,0.057c1.791,0,3.555-0.086,5.318-0.142V0z"/>
</g>
<g id="g5821" transform="matrix(1.25,0,0,-1.25,240.90037,178.09937)">
	<path id="path5823" fill="#FFFFFF" d="M0,0c-0.085,3.158,0.57,5.973,3.186,7.964c1.82,1.366,3.497,1.48,4.351,1.48
		c0.769,0,1.678-0.142,1.849-0.17c0.455-0.086,1.735-0.341,2.844-1.138c0.769-0.541,1.337-1.28,1.537-1.536
		c1.734-2.361,1.763-5.005,1.763-5.973c0-3.755-0.996-5.745-2.077-7.024C11.462-8.76,8.874-9.016,7.794-9.016
		c-1.167,0-4.095,0.284-6.087,3.044C0.882-4.834,0.057-3.128,0,0 M-3.271,0.541c-0.058-3.727,1.366-6.087,2.247-7.139
		c0.654-0.798,1.338-1.337,1.65-1.536c2.105-1.565,4.58-2.048,7.111-2.048c1.535,0,4.921,0.084,7.935,2.9
		c2.219,2.105,3.129,4.636,3.129,7.736c0,4.152-1.65,6.23-2.958,7.423c-2.929,2.646-6.94,2.731-8.163,2.731
		c-4.522,0-7.054-1.877-8.39-3.271C-1.734,6.257-3.214,4.209-3.271,0.541"/>
</g>
<g id="g5825" transform="matrix(1.25,0,0,-1.25,290.76162,169.85062)">
	<path id="path5827" fill="#FFFFFF" d="M0,0c0.113,1.308,0.199,1.564,0.598,2.787c-1.309,0.513-3.642,1.48-7.14,1.48
		c-4.039,0-8.192-1.48-10.098-5.32c-1.023-2.075-1.079-4.209-1.079-5.032c0-3.529,1.222-5.747,2.074-6.798
		c1.282-1.622,3.926-3.697,8.676-3.697c2.731,0,4.75,0.709,5.689,1.136c0.654,0.314,1.479,0.855,1.622,0.939
		c0.055,0.967,0.055,1.08,0.312,2.02l-0.398,0.228c-1.48-1.28-2.475-2.162-4.351-2.645c-0.997-0.257-1.879-0.285-2.247-0.285
		c-3.755,0-5.661,2.048-6.486,3.299c-1.535,2.305-1.593,5.177-1.593,6.059c0,3.838,1.508,5.944,2.674,7.025
		c1.934,1.762,3.925,1.848,4.92,1.848c2.702,0,4.238-0.91,5.12-1.648C-1.195,0.995-0.74,0.484-0.342,0H0z"/>
</g>
<g id="g5829" transform="matrix(1.25,0,0,-1.25,298.35037,178.09937)">
	<path id="path5831" fill="#FFFFFF" d="M0,0c-0.085,3.158,0.57,5.973,3.185,7.964c1.823,1.366,3.498,1.48,4.352,1.48
		c0.768,0,1.678-0.142,1.849-0.17c0.456-0.086,1.735-0.341,2.844-1.138c0.767-0.541,1.335-1.28,1.537-1.536
		c1.734-2.361,1.762-5.005,1.762-5.973c0-3.755-0.995-5.745-2.076-7.024c-1.99-2.362-4.579-2.618-5.66-2.618
		c-1.165,0-4.095,0.284-6.086,3.044C0.883-4.834,0.057-3.128,0,0 M-3.271,0.541c-0.055-3.727,1.366-6.087,2.247-7.139
		c0.655-0.798,1.337-1.337,1.651-1.536c2.104-1.565,4.581-2.048,7.11-2.048c1.536,0,4.92,0.084,7.936,2.9
		c2.217,2.105,3.128,4.636,3.128,7.736c0,4.152-1.65,6.23-2.958,7.423c-2.929,2.646-6.939,2.731-8.163,2.731
		c-4.523,0-7.053-1.877-8.392-3.271C-1.735,6.257-3.214,4.209-3.271,0.541"/>
</g>
<g id="g5833" transform="matrix(1.25,0,0,-1.25,330.78913,174.18799)">
	<path id="path5835" fill="#FFFFFF" d="M0,0c0.028,1.166,0,2.331,0.028,3.498c0,1.251,0.087,2.475,0.23,3.727
		c-0.826-0.114-1.309-0.172-1.679-0.172c-0.628,0-1.536,0.113-1.594,0.113c0.084-3.298,0.202-6.626,0.202-9.952
		c0-1.425-0.033-2.845-0.059-4.269c0-1.138,0-2.275-0.028-3.411c-0.03-0.826-0.114-1.652-0.2-2.477
		c1.822,0.114,3.614,0.229,5.434,0.229c1.963,0,3.897-0.085,5.86-0.17c-0.084,1.079-0.029,1.309,0.029,1.934
		c-2.676-0.286-3.53-0.398-8.135-0.341C0.028-8.931,0-6.599,0-4.211V0z"/>
</g>
<g id="g5837" transform="matrix(1.25,0,0,-1.25,349.00913,178.95312)">
	<path id="path5839" fill="#FFFFFF" d="M0,0C0.54,1.309,1.052,2.589,1.62,3.898c0.485,1.137,1.052,2.245,1.593,3.355L6.454,0H0z
		 M3.328,11.122C2.871,9.956,2.389,8.818,1.875,7.681C1.195,6.115,0.483,4.58-0.199,3.016C-1.139,0.883-2.048-1.251-2.99-3.383
		c-0.879-1.878-1.787-3.755-2.699-5.603c0.567,0.056,0.938,0.085,1.195,0.085c0.369,0,0.595-0.029,1.252-0.143
		c0.737,2.589,0.965,3.384,2.643,7.566c1.393,0.057,2.759,0.114,4.152,0.114c1.167,0,2.334-0.029,3.499-0.057
		c1.906-4.238,2.161-5.091,2.988-7.68c0.938,0.171,1.362,0.227,1.817,0.227c0.544,0,0.913-0.056,1.876-0.198
		c-0.479,0.909-0.963,1.82-1.421,2.786c-0.54,1.166-1.022,2.389-1.534,3.584C10.124-1.193,9.442,0.286,8.76,1.821
		c-0.598,1.337-1.166,2.73-1.792,4.066C6.512,6.854,6.029,7.794,5.603,8.732c-0.342,0.768-0.655,1.565-0.94,2.36L3.328,11.122z"/>
</g>
<g id="g5841" transform="matrix(1.25,0,0,-1.25,382.31163,165.15688)">
	<path id="path5843" fill="#FFFFFF" d="M0,0.001c-0.824-0.086-1.648-0.173-2.472-0.228C-3.526-0.285-4.577-0.314-5.63-0.314
		c-1.363-0.028-2.731-0.028-4.096-0.028c-1.052,0-2.102,0-3.157,0.056c-0.994,0.058-1.99,0.141-2.986,0.227
		c0.114-0.568,0.143-0.768,0.143-1.08c0-0.258-0.058-0.655-0.084-0.911c0.938,0.087,1.877,0.172,2.786,0.228
		c1.252,0.056,2.474,0.056,3.723,0.056c0.03-2.787,0.062-5.545,0.062-8.333c-0.033-3.327-0.118-6.654-0.23-9.955
		c0.824,0.086,0.992,0.115,1.479,0.115c0.511,0,0.824-0.029,1.79-0.17c-0.059,1.136-0.142,2.246-0.17,3.384
		c-0.084,1.734-0.059,3.498-0.031,5.234c0,1.736-0.028,3.498-0.028,5.233c0,1.509,0.059,2.987,0.087,4.493
		c0.995,0,1.991-0.028,2.959-0.028c1.819-0.028,2.217-0.056,3.298-0.284c-0.113,0.54-0.139,0.68-0.139,0.968
		C-0.224-0.655-0.055-0.114,0,0.001"/>
</g>
<g id="g5845" transform="matrix(1.25,0,0,-1.25,389.028,165.26437)">
	<path id="path5847" fill="#FFFFFF" d="M0,0c-0.6-0.058-1.027-0.113-1.652-0.113c-0.512,0-0.794,0.027-1.677,0.141
		c0.055-0.626,0.113-1.279,0.141-1.933c0.114-1.621,0.142-3.3,0.142-4.949c0-1.081-0.028-2.134-0.028-3.186
		c0-1.735,0-3.469-0.027-5.205c0-1.621-0.087-3.212-0.2-4.808c0.91,0.116,1.195,0.142,1.707,0.142c0.568,0,1.136-0.056,1.705-0.112
		c-0.084,0.823-0.17,1.648-0.227,2.502c-0.083,1.336-0.083,2.673-0.083,4.039c-0.032,1.934-0.06,3.867-0.06,5.801
		c0,1.052,0,2.105,0.028,3.185C-0.171-3.015-0.087-1.507,0,0"/>
</g>
<g id="g5849" transform="matrix(1.25,0,0,-1.25,399.75662,167.25562)">
	<path id="path5851" fill="#FFFFFF" d="M0,0c1.08,0,2.158,0.03,3.24,0.03C4.691,0,6.139-0.114,7.591-0.256
		C7.477,0.57,7.505,0.796,7.734,1.594C5.545,1.479,3.385,1.337,1.166,1.337c-1.396,0-2.816,0.084-4.212,0.17
		c0.287-1.962,0.171-2.388,0.202-3.555C-2.816-3.185-2.79-4.296-2.79-5.405c0-2.104-0.027-4.18-0.055-6.255
		c0-0.827,0-1.652-0.03-2.475c0-0.655,0.03-1.336,0-1.992c-0.027-0.797-0.11-1.536-0.171-2.302c1.452,0.055,2.873,0.085,4.321,0.085
		c2.25,0,4.467-0.085,6.688-0.202c-0.087,0.541-0.116,0.627-0.116,0.939c0,0.37,0.06,0.683,0.086,0.825
		c-0.851-0.027-1.68-0.083-2.533-0.112c-1.82-0.057-3.609-0.057-5.428-0.057v8.389c0.567,0.058,1.164,0.087,1.76,0.087
		c0.541,0,1.079-0.029,1.62-0.029c0.77-0.029,1.51-0.029,2.246-0.085c0.458-0.028,0.913-0.086,1.397-0.17
		C6.91-7.935,6.91-7.706,7.052-6.913C6.397-6.968,5.716-7.081,5.058-7.11C4.605-7.138,4.18-7.138,3.723-7.138
		c-1.223,0-2.473,0-3.696-0.03L0,0z"/>
</g>
<g id="g5853" transform="matrix(1.25,0,0,-1.25,418.07662,166.93438)">
	<path id="path5855" fill="#FFFFFF" d="M-0.001,0c0.712,0.056,1.398,0.112,2.105,0.112c0.683,0,1.452-0.055,2.077-0.227
		c0.939-0.256,2.731-1.024,2.731-3.613c0-2.645-1.934-3.583-2.787-3.895C2.562-8.163,0.199-8.022-0.085-8.022
		c-0.028,1.224-0.028,2.447-0.028,3.641C-0.113-2.902-0.056-1.452-0.001,0 M-3.071,1.392c0.055-0.853,0.114-1.735,0.17-2.617
		c0.086-1.591,0.086-3.185,0.086-4.777v-2.475c-0.029-1.762-0.029-3.498-0.086-5.233c-0.027-1.648-0.17-3.298-0.341-4.976
		c0.541,0.055,1.082,0.112,1.623,0.112c0.652,0,1.109-0.056,1.732-0.142c-0.055,0.712-0.114,1.423-0.14,2.162
		c-0.03,0.827-0.03,1.651-0.03,2.504c0,1.678,0,3.386-0.029,5.062l0.654,0.114c1.423-1.764,2.844-3.528,4.211-5.319
		c1.108-1.479,2.161-2.988,3.213-4.523c0.655,0.086,1.281,0.142,1.934,0.142c0.681,0,1.337-0.084,2.017-0.142l0.031,0.314
		c-1.336,1.508-2.673,3.044-3.925,4.609c-1.365,1.649-2.646,3.355-3.954,5.062c1.619,0.341,3.102,0.627,4.295,1.791
		c1.365,1.337,1.564,2.873,1.592,3.555c0,0.939-0.339,1.906-0.88,2.674C7.909,0.995,5.945,1.137,5.264,1.194
		C4.922,1.223,4.551,1.25,4.209,1.25h-5.488L-3.071,1.392z"/>
</g>
<g id="g5857" transform="matrix(1.25,0,0,-1.25,443.48038,185.45799)">
	<path id="path5859" fill="#FFFFFF" d="M0,0c-0.112-1.223-0.169-1.395-0.594-2.559C0.629-3.355,1.794-4.21,4.782-4.21
		c0.653,0,2.444,0,4.149,0.995c0.909,0.541,3.129,2.219,3.156,5.377c0,1.394-0.482,2.872-1.449,3.783
		C9.357,7.196,7.026,7.765,5.464,8.42c-1.423,0.567-2.105,1.08-2.561,1.677c-0.198,0.256-0.656,0.938-0.656,1.877
		c0,1.167,0.856,3.272,3.701,3.272c1.904,0,2.871-0.825,3.327-1.394c0.312-0.37,0.712-1.025,0.738-1.081l0.369-0.027
		c0.316,1.336,0.484,1.705,0.797,2.39c-1.049,0.567-1.85,0.965-2.986,1.164c-0.68,0.115-1.452,0.115-1.649,0.115
		c-2.759,0-4.152-0.768-5.06-1.621c-1.567-1.451-1.765-3.186-1.765-4.009c0-1.794,0.882-3.272,2.36-4.184
		C2.732,6.2,3.784,5.717,5.435,5.092C6.458,4.693,7.483,4.409,8.337,3.64C9.418,2.701,9.53,1.564,9.53,0.996
		c0-1.337-0.743-3.954-4.18-3.983c-0.882,0-1.537,0.17-1.849,0.284C2.108-2.275,1.453-1.48,1.081-1.024
		C0.826-0.711,0.6-0.371,0.342,0H0z"/>
</g>
<g id="g5861" transform="matrix(1.25,0,0,-1.25,482.16287,167.14812)">
	<path id="path5863" fill="#FFFFFF" d="M0,0c0.086-2.162,0.197-4.323,0.197-6.484c0-1.48-0.058-2.93-0.083-4.38
		C0-12.259-0.115-12.913-0.343-13.539c-0.484-1.365-2.02-3.84-5.745-3.84c-3.555,0-4.979,2.191-5.434,3.585
		c-0.452,1.279-0.513,3.014-0.541,3.355C-12.091-8.221-12.146-6-12.091-3.812c0.029,1.763,0.145,3.555,0.286,5.319
		c-0.54-0.027-1.081-0.058-1.594-0.058c-0.598,0-1.165,0.058-1.734,0.086c0.058-1.252,0.141-2.503,0.173-3.782
		c0.055-1.167,0.027-2.305,0.027-3.471c0-1.877,0-3.754-0.027-5.63c0.111-1.906,0.226-2.646,0.623-3.556
		c0.144-0.313,0.427-0.966,1.024-1.621c2.191-2.389,5.887-2.418,6.628-2.418c3.272,0,4.977,0.939,6.116,1.934
		c0.767,0.684,1.849,1.964,2.275,4.438c0.085,0.541,0.114,1.082,0.17,1.622c0.029,0.881,0.029,1.792,0.058,2.672
		c0.028,1.822,0.028,3.67,0.113,5.491c0.057,1.45,0.2,2.873,0.34,4.295C1.961,1.479,1.534,1.449,1.108,1.449
		c-0.428,0-0.853,0.03-1.28,0.086L0,0z"/>
</g>
<g id="g5865" transform="matrix(1.25,0,0,-1.25,494.68662,165.26437)">
	<path id="path5867" fill="#FFFFFF" d="M0,0c-0.596-0.058-1.024-0.113-1.648-0.113c-0.511,0-0.798,0.027-1.68,0.141
		c0.06-0.626,0.114-1.279,0.145-1.933c0.114-1.621,0.141-3.3,0.141-4.949c0-1.081-0.027-2.134-0.027-3.186
		c0-1.735,0-3.469-0.03-5.205c0-1.621-0.084-3.212-0.2-4.808c0.911,0.116,1.195,0.142,1.706,0.142c0.57,0,1.141-0.056,1.71-0.112
		c-0.088,0.823-0.171,1.648-0.227,2.502c-0.088,1.336-0.088,2.673-0.088,4.039c-0.026,1.934-0.055,3.867-0.055,5.801
		c0,1.052,0,2.105,0.03,3.185C-0.171-3.015-0.084-1.507,0,0"/>
</g>
<g id="g5869" transform="matrix(1.25,0,0,-1.25,500.01288,185.45799)">
	<path id="path5871" fill="#FFFFFF" d="M0,0c-0.112-1.223-0.169-1.395-0.596-2.559C0.625-3.355,1.794-4.21,4.779-4.21
		c0.655,0,2.447,0,4.153,0.995c0.91,0.541,3.127,2.219,3.158,5.377c0,1.394-0.484,2.872-1.452,3.783
		c-1.28,1.252-3.612,1.82-5.177,2.475c-1.42,0.567-2.103,1.08-2.56,1.677c-0.2,0.256-0.654,0.938-0.654,1.877
		c0,1.167,0.854,3.272,3.698,3.272c1.905,0,2.873-0.825,3.327-1.394c0.316-0.37,0.711-1.025,0.741-1.081l0.37-0.027
		c0.313,1.336,0.484,1.705,0.796,2.39c-1.054,0.567-1.848,0.965-2.986,1.164c-0.682,0.115-1.451,0.115-1.65,0.115
		c-2.76,0-4.152-0.768-5.062-1.621c-1.565-1.451-1.764-3.186-1.764-4.009c0-1.794,0.883-3.272,2.36-4.184
		C2.73,6.2,3.782,5.717,5.434,5.092C6.457,4.693,7.482,4.409,8.336,3.64c1.082-0.939,1.193-2.076,1.193-2.644
		c0-1.337-0.739-3.954-4.18-3.983c-0.881,0-1.536,0.17-1.848,0.284C2.105-2.275,1.453-1.48,1.081-1.024
		C0.825-0.711,0.6-0.371,0.342,0H0z"/>
</g>
<g id="g5873" transform="matrix(1.25,0,0,-1.25,518.35425,185.45799)">
	<path id="path5875" fill="#FFFFFF" d="M0,0c-0.113-1.223-0.171-1.395-0.596-2.559C0.626-3.355,1.793-4.21,4.779-4.21
		c0.654,0,2.447,0,4.153,0.995c0.909,0.541,3.13,2.219,3.155,5.377c0,1.394-0.483,2.872-1.448,3.783
		c-1.28,1.252-3.612,1.82-5.177,2.475c-1.423,0.567-2.107,1.08-2.559,1.677c-0.201,0.256-0.656,0.938-0.656,1.877
		c0,1.167,0.854,3.272,3.698,3.272c1.905,0,2.872-0.825,3.327-1.394c0.314-0.37,0.713-1.025,0.738-1.081l0.371-0.027
		c0.314,1.336,0.484,1.705,0.798,2.39c-1.052,0.567-1.85,0.965-2.988,1.164c-0.681,0.115-1.45,0.115-1.648,0.115
		c-2.757,0-4.153-0.768-5.063-1.621c-1.564-1.451-1.763-3.186-1.763-4.009c0-1.794,0.881-3.272,2.359-4.184
		C2.732,6.2,3.786,5.717,5.433,5.092C6.458,4.693,7.48,4.409,8.333,3.64C9.415,2.701,9.53,1.564,9.53,0.996
		c0-1.337-0.739-3.954-4.183-3.983c-0.88,0-1.536,0.17-1.848,0.284C2.105-2.275,1.451-1.48,1.08-1.024
		C0.826-0.711,0.598-0.371,0.344,0H0z"/>
</g>
<g id="g5877" transform="matrix(1.25,0,0,-1.25,542.10162,167.25562)">
	<path id="path5879" fill="#FFFFFF" d="M0,0c1.081,0,2.161,0.03,3.242,0.03C4.693,0,6.142-0.114,7.593-0.256
		C7.479,0.57,7.507,0.796,7.736,1.594c-2.189-0.114-4.352-0.256-6.57-0.256c-1.395,0-2.818,0.084-4.212,0.17
		c0.285-1.962,0.17-2.388,0.199-3.555c0.028-1.137,0.059-2.248,0.059-3.357c0-2.104-0.031-4.18-0.059-6.255
		c0-0.827,0-1.652-0.029-2.475c0-0.655,0.029-1.336,0-1.992c-0.026-0.797-0.113-1.536-0.17-2.302
		c1.452,0.055,2.874,0.085,4.323,0.085c2.247,0,4.465-0.085,6.688-0.202c-0.088,0.541-0.117,0.627-0.117,0.939
		c0,0.37,0.055,0.683,0.087,0.825c-0.854-0.027-1.678-0.083-2.534-0.112c-1.82-0.057-3.611-0.057-5.431-0.057v8.389
		c0.569,0.058,1.166,0.087,1.765,0.087c0.54,0,1.078-0.029,1.619-0.029c0.77-0.029,1.509-0.029,2.248-0.085
		c0.457-0.028,0.911-0.086,1.394-0.17C6.911-7.935,6.911-7.706,7.053-6.913C6.4-6.968,5.718-7.081,5.061-7.11
		C4.607-7.138,4.182-7.138,3.724-7.138c-1.223,0-2.472,0-3.695-0.03L0,0z"/>
</g>
<path id="path5881" fill="#FFFFFF" d="M14.047,136.789h571.905v6.298H14.047V136.789z"/>
<g id="g5883" transform="matrix(1.25,0,0,-1.25,487.988,51.051875)">
	<path id="path5885" fill="#FFFFFF" d="M0,0c-0.367-0.089-0.747-0.224-0.935-0.578c0.253-0.229,0.392-0.545,0.357-0.882
		c-0.051-0.503-0.418-0.866-0.606-1.307c-1.614-3.904-1.52-7.684,0.487-11.398c0.254-0.145,0.489-0.38,0.559-0.669
		c0.659-0.425,1.149-1.287,0.58-2.007c-0.089,0.356-0.298,0.672-0.531,0.943c-0.907-0.748-0.828-0.709-1.938-0.394
		c-0.2,0.056-0.38-0.187-0.488-0.319c-1.412-1.834-3.695-7.275-2.895-9.583c0.17-0.502,0.439-0.723,0.439-1.326
		c0.407-0.597,0.419-1.641-0.158-2.142c-0.066,0.44-0.133,0.892-0.369,1.275c-1.799-1-1.716,0.556-2.309,1.069
		c-1.829,0.23-3.961-0.298-5.408-1.447c-1.09-0.867-1.446-1.623-2.074-2.191c-0.332-0.302-0.712,0.348-0.944,0.516
		c-0.757,0.569-3.514,1.815-4.388,1.293c-0.426-0.879,2.002-2.402,2.423-2.952c0.222-0.285-0.268-0.686-0.444-0.881
		c-0.339-0.372-1.01-0.761-1.466-0.987c0.182-1.169,1.169-1.849,1.511-2.874c-0.211-0.662-0.873-1.012-1.362-1.449
		c0.109-0.826,0.682-1.476,1.245-2.052c0.084-0.565-0.502-0.922-0.548-1.279c-0.06-0.467,1.034-1.475,1.358-1.776
		c0.031-0.203-0.084-0.622,0.031-0.777c0.557-0.752,1.948-0.306,2.35-1.159c0.905-0.256,1.991-0.242,2.735,0.394
		c-0.493,0.317-1.027,0.582-1.36,1.085c-0.944,0.349-1.562,0.845-1.948,1.779c-0.252,0.601-0.768,0.853-0.873,1.58
		c-0.082,0.558,0.002,0.978,0.04,1.522c0.054,0.663-0.448,1.315-0.102,1.978c0.24,0.451,0.773,0.693,1.007,1.096
		c0.182,0.323,0.083,0.721,0.366,1.032c0.459,0.498,1.277,0.314,1.734,0.776c0.289,0.297,0.533,0.687,1.016,0.611
		c0.628-0.102,1.316-0.703,1.979-0.32c0.345,0.195,0.627,0.499,1.052,0.243c0.621-0.374,0.696-1.263,1.418-1.553
		c0.551-0.22,1.428,0.303,1.582-0.561c0.125-0.702-0.27-2.02,0.594-2.389c0.305-0.132,0.81-0.022,0.871-0.501
		c0.081-0.671-0.71-1.923-0.487-2.51c0.164-0.444,0.909-0.797,0.63-1.357c-0.309-0.631-0.915-0.976-1.136-1.746
		c1.382-1.001,2.62-1.719,2.706-3.653c0.171,0.075,0.457,0.855,1.315,0.763c0.316-0.033,1.218-0.616,1.121-0.974
		c-0.042-0.168-0.215-0.08-0.323-0.079c-1.128,0.022-1.909-4.825-6.535-3.756c-0.147,0.036-0.323,0.101-0.382,0.258
		c0.585,0.471,1.637,0.878,1.491,1.798C-7.088-49.3-7.728-49-7.572-48.422c0.213,0.757,1.541,0.638,1.659-0.452
		c0.591,1.139-0.722,1.795-1.601,2.054c-1.07-0.4-1.235-1.827-1.294-1.904c-0.547-0.665-1.597-0.929-2.354-1.232
		c-0.422-0.169-0.216-0.738-0.652-0.88c-0.952-0.318-2.827-0.315-3.751-0.337c-0.179-0.174-0.271-0.424-0.488-0.561
		c-1.205-0.02-2.831,0.671-3.918,1.122c-0.269-0.115-0.45-0.366-0.683-0.546c-0.802,0.042-2.592,1.531-3.234,2.069
		c-0.243-0.003-0.585-0.299-0.812-0.152c-0.469,0.302-1.587,2.333-1.909,2.906c-0.226-0.004-0.44-0.116-0.664-0.061
		c-0.317,0.494-0.483,2.288-0.561,2.768c-0.081,0.514-0.495,0.485-0.932,0.563c-0.899,4.807-2.017,5.598-2.452-0.091l-0.3-0.016
		c-1.403,1.177-1.616-0.311-1.918-1.488c-0.262-0.245-0.442,0.223-0.664,0.317c-0.838,0.366-0.862-0.984-0.918-1.46
		c-1.001,0.039-2.207-2.966-1.244-3.501c0.328-0.176,0.76-0.245,1.023-0.513c0.552-0.032,1.586-0.112,1.524-0.913
		c-0.015-0.158-0.015-0.354-0.15-0.458c-1.133,1.623-1.354-1.135-3.145-0.546c-1.912,0.624,0.206,2.933-2.87,1.293
		c-0.107-1.17-1.462-2.344-2.334-1.126c-0.568-0.128-0.618-0.596-0.58-1.08c-0.933,0.794-0.371,1.31,0.121,2.01
		c0.215,0.303,0.233,0.597,0.559,0.863c-0.931,0.872-3.464-1.745-3.253,1.705c-0.343,0.214-0.867,0.322-1.208,0.046
		c0.305,1.035,1.205,1.174,2.022,0.621c0.345,0,0.685-0.089,1.021-0.135c-0.445,0.684-0.65,2.003,0.415,2.252
		c0.2,0.417-0.259,0.877-0.61,1.019c-0.009,0.408,1.064,0.08,1.289-0.199c0.478-0.597,0.781-3.634,2.807-2.432
		c0.508,0.3,1.252,2.344,1.267,2.954c0.053,2.992-0.864,6.881,0.476,9.578c0.174,0.339-1.836,0.878-2.008,1.242
		c-0.388,0.837-1.67-0.459-2.034-0.732l-0.178,0.065c-0.269,0.579-0.23,1.222-0.455,1.768c-0.201,0.5-2.304,0.527-2.783,0.428
		c-0.009,1.002,1.378,1.924-1.507,1.83c-0.196,0.691-1.168,2.207-2.064,1.708c-0.779-2.289,1.589-2.759,0.107-3.762
		c0.015,1.967-1.371,0.034-2.428,1.498c-1.058,1.47,0.98,1.701,0.338,3.129c-0.225,0.115-0.48,0.203-0.735,0.187
		c-1.247-0.884-2.866-0.52-2.627,1.247c-0.329,0.353-0.634,0.029-0.958,0.089c-0.479,0.092,0.413,1.242,1.6,0.813
		c0.304,0.11,0.633,0.076,0.938-0.02c-0.027,0.297-0.202,1.043-0.427,1.255c-1.11,1.074-1.026,2.353,0.671,2.702
		c0.322,0.481,0.005,0.868-0.366,1.165c0.28,0.156,0.675,0.036,0.917-0.136c0.588-0.419,0.384-1.095,0.38-1.673
		c0-0.239,0.288-0.907,0.402-1.138c0.223,0.966,1.205,2.233,2.123,1.039c0.533,0.052,0.559,0.46,0.559,0.898
		c0.12,0.041,0.185-0.054,0.239-0.135c0.463-0.715,0.263-1.56-0.498-1.97c-0.021-0.373-0.212-0.717-0.365-1.048
		c0.241-0.483,0.09-1.157,0.71-1.36c0.637-0.208,2.626-0.924,3.184-0.933l0.277,0.015c0.511,0.082,1.077,0.321,1.595,0.441
		c1.281,0.301,2.596,0.491,3.906,0.594l1.654,0.132c0.104,0.256-0.083,0.264,0.01,0.525c-0.206,0.108-0.957,0.306-0.975,0.454
		c-0.183,1.414,0.747,3.004,0.737,3.253c-0.002,0.165-0.262,0.161-0.234,0.334c0.208,1.285,2.696,2.179,3.296,2.829
		c0.102,0.118-0.116,0.292,0.045,0.444c0.489,0.461,3.555,0.995,3.724,1.141c0.121,0.102,0.078,0.333,0.117,0.471
		c0.908,0.652,2.792,0.118,3.519,1.401c0.824,1.454-2.045,1.894-3.255,1.532c-0.348-0.102-0.803-0.433-1.18-0.348
		c-0.958,0.223-3.713,1.112-4.195-0.396c-0.134-0.405,0.334-0.61,0.248-0.988l-0.219-0.214c-1.203-0.143-2.907,1.379-4.167-0.273
		c-0.465,0.438-0.961,0.951-1.643,0.955c-2.064,0.027-6.526-1.042-8.055,0.368c-0.107,0.099-0.275,0.379-0.251,0.531
		c0.117,0.742,2.938,0.057,3.057,0.518c0.028,0.097-0.115,0.217-0.187,0.245c-1.728,0.589-4.763,1.776-6.463,1.932
		c-0.765,0.066-1.545,0.007-2.247-0.32c0.007,0.64,1.834,2.46-0.839,3.209c0.321,0.33,0.813,0.244,1.225,0.183
		c3.689-0.549,7.104-4.663,10.864-4.441c0.57,0.031,3.826,0.712,3.883,1.014c0.021,0.105-0.105,0.155-0.179,0.175
		c-0.648,0.167-2.238-0.263-2.625-0.14c-0.449,0.144-0.844,0.41-1.283,0.56c-0.493,0.168-0.919-0.766-1.259-0.135
		c-0.515,0.944-1.221,1.104-2.029,0.278l-0.216,0.041c-0.249,0.388-0.046,0.978-0.577,1.172c-0.752,0.275-1.228-0.723-1.522-0.075
		c0.302,1.033-0.937,1.462-0.504,2.689c0.776,2.203,3.201,0.125,3.665,0.077c0.94-0.088,1.882-0.15,2.821-0.226
		c1.797,2.075,2.164,0.809,3.595,1.055c1.768,0.305,2.405,0.217,4.095-0.692c0.974-0.526,1.562-1.145,2.745-0.667
		c0.417,0.165,0.872,0.588,1.335,0.35c0.227-0.123,0.361-0.422,0.662-0.276c0.616,0.303,1.045,0.909,1.626,1.232
		c0.777,0.441,0.837-1.109,1.345-1.261c0.714-0.211,1.489,1.314,1.859,1.671c0.672,0.65,1.57-1.583,1.969-1.914
		c0.751-0.117,1,1.024,1.431,1.124c0.873,0.211,1.312-2.202,1.541-2.692c0.356-0.782,1.058,0.558,1.548,0.213
		c0.808-0.561,0.169-2.779,0.223-3.556c0.042-0.582,0.977-0.197,1.093-0.795c0.123-0.648-0.905-1.96-1.182-2.417
		c-0.23-0.374,0.46-0.742,0.607-0.96c0.206-0.311-0.214-0.709-0.418-0.912c-0.43-0.431-0.998-0.721-1.447-1.126
		c-0.466-0.421,0.316-0.773,0.118-1.063c-0.228-0.344-3.994-2.69-2.247-3.468c1.197,0.246,4.131,2.138,4.85,3.105
		c0.313,0.417,1.727,6.813,1.963,7.756c-0.566,0.731-0.953,3.638,0.448,3.665c-0.139-0.302-0.383-0.666-0.211-1.006
		c0.511,0.368,0.992,0.267,1.405-0.167c3.627,4.018,7.529,6.006,12.609,7.593c0.239,0.651,0.379,0.968,1.107,1.112
		C-1.545,0.254-0.57,0.568,0,0 M-1.581-1.363l-0.311,0.104c-0.397-0.089-0.544-0.563-0.667-0.894
		c-5.498-1.678-9.268-3.879-13.05-8.261c-1.18,2.173-1.908,0.254-0.667-0.974c-0.361-1.476-1.648-8.512-2.363-9.188
		c-1.339-1.27-3.212-1.89-4.537-3.089l0.047-0.226c0.21-0.029,0.47,0.075,0.662,0.15c1.28,0.492,3.372,1.679,4.405,2.573
		c1.186,1.021,1.932,6.416,2.161,7.483c0.182,0.88,0.386,1.966,0.956,2.676c3.11,3.869,7.32,6.845,12.152,8.094
		C-2.253-2.774-1.141-2.052-1.581-1.363 M-2.943-5.149l-0.209,0.182c-0.247-0.058-0.388-0.378-0.47-0.595
		c-0.807-2.099-0.277-4.33-0.324-6.481c-0.007-0.3-0.2-0.682-0.52-0.346c-0.355,0.37-0.64,1.879-0.722,2.417
		c-0.08,0.523-0.116,3.715-0.193,3.819c-1.139,0.057-0.584-4.875-0.637-5.554l-0.22-0.154c-0.876,0.074-1.137,3.836-1.122,4.536
		l-0.226,0.166c-1.006-0.145,0.296-4.816-0.694-3.969c-0.528,0.456-0.859,2.161-1.02,2.843c-0.74-0.211,0.27-2.696-0.622-2.615
		c-0.204,0.021-0.346,0.261-0.425,0.425c-0.165,0.337-0.173,0.75-0.414,1.051l-0.223-0.077c-0.052-0.323-0.098-0.653-0.162-0.974
		c-0.094-0.44-0.977,0.115-0.902-0.548c0.033-0.294,2.719-0.819,3.18-0.957c2.315-0.701,4.463-1.784,6.474-3.117
		c0.316-0.215,0.703-0.764,1.121-0.671c1.162,0.265-0.273,1.236-0.414,1.519C-3.157-11.303-3.577-8.387-2.943-5.149 M-50.22-7.304
		l0.221-0.016c0.136,0.238,0.302,0.499,0.577,0.59c0.165,0.057,0.37,0.057,0.518-0.044c0.237-0.161-0.078-0.576,0.207-0.682
		c0.22-0.09,0.894,0.168,1.273-0.018c0.639-0.312,0.557-0.524,1.375-0.457c0.377,0.031,0.585-0.158,0.78-0.439
		c0.312-0.452,0.693-0.044,1.064-0.065c0.303-0.013,1.214-0.535,1.554-0.682c1.3-0.561,3.675-0.55,4.256-0.852
		c0.158-0.08,0.201-0.203,0.164-0.38c-0.09-0.407-0.691-0.734-1.05-0.867c-0.772-0.281-1.719-0.366-2.527-0.503
		c-2.21-0.368-4.027-1.533-6.359-1.581c-0.314-0.006-0.662,0.048-0.913-0.182c0.755-0.548,7.484,0.605,7.902,1.139
		c0.809,1.017,1.537-0.233,2.248-0.227c0.797,0.004-0.17,0.783,0.162,1.127c0.58,0.594,1.564-0.113,2.202,0.409l-0.014,0.321
		c-1.45,0.861-0.828,0.762,0.089,1.489c0.688,0.547,0.672,1.782-0.03,1.399c-0.537-1.308-3.48,1.244-4.318,1.446
		c-1.693,0.411-2.586-0.901-3.248-0.99c-0.42-0.053-2.888,0.31-3.33,0.459c-0.63,0.216-1.452,1.037-2.168,0.912
		C-50.095-6.088-50.742-6.858-50.22-7.304 M-32.558-7.691c0.97-0.649,1.723-1.494,2-2.434c0.118-0.392-0.024-0.815,0.163-1.199
		l0.314,0.087C-28.874-9.783-30.12-7.762-32.558-7.691 M-29.381-7.505c1.987-1.794,0.767-2.548,0.506-4.005
		C-26.931-11.876-26.188-7.816-29.381-7.505 M-26.316-8.039c0.696-1.358,0.614-2.712-0.497-3.902
		c-0.121-0.131-0.688-0.545-0.571-0.707c0.575-0.799,2.6,1.329,2.741,2.028C-24.41-9.522-25.09-8.548-26.316-8.039 M-33.963-8.417
		l-0.25-0.031c-0.135-0.57,1.571-2.759,1.981-2.204C-31.815-10.089-33.495-8.619-33.963-8.417 M-23.311-9.304
		c-0.027-0.583,0.009-1.171-0.088-1.748c-1.013-6.326-12.425-5.275-13.507-10.968c0.213,0.111,0.403,0.216,0.646,0.183
		c-0.112-1.462-1.052-2.159-0.308-3.836c0.3,0.643,0.547,1.33,1.123,1.782l0.224-0.064c-0.099-0.627-0.81-3.155-0.27-3.557
		c0.305,0.457,0.588,1.327,1.213,1.431l0.148-0.258l-0.442-1.996c-0.246-1.075-0.155-2.196-0.371-3.252
		c-0.21-1.032-0.711-2.135-1.004-3.165c-0.642-2.259-1.034-4.521-1.225-6.861c-0.081-0.941-0.025-1.982-0.162-2.904
		c-0.053-0.319-1.38-3.208-1.602-3.425c-0.95-0.928-2.658-0.522-3.78-0.275l-0.015-0.24c0.455-0.11,0.948-0.206,1.386-0.369
		c0.489-0.174-0.14-0.399,0.033-0.758c0.471,0.212,2.259,1.236,2.793,0.944c0.323-0.182,0.407-0.645,0.884-0.488
		c0.066,0.634-0.338,1.245-0.134,1.87c0.146,0.44,1.128,2.087,1.144,2.312c0.049,0.984,0.066,1.953,0.142,2.939
		c0.019,0.192,0.115,0.867,0.253,0.987c0.227,0.198,0.302-0.308,0.575-0.226l0.163,0.259c0.008,0.718-0.242,2.478,0.209,3.04
		c0.043,0.055,0.231,0.116,0.295,0.077c0.537-0.318,0.664-1.512,0.959-1.492c0.102,0.008,0.184,0.274,0.194,0.349
		c0.166,1.062-0.303,2.207-0.059,3.273c0.066,0.298,0.284,0.752,0.637,0.789c0.336,0.038,0.356-0.427,0.679-0.381
		c0.294,0.58-0.447,4.582,0.698,5.082l0.19-0.182c0.091-0.669,0.1-2.561,0.696-2.92c0.138,0.445,0.521,2.202,1.12,2.192l0.119-0.23
		c-0.101-0.669-0.452-4.124,0.149-4.366c0.173,0.728,0.361,1.498,0.648,2.191c0.677,1.636,2.104,2.985,3.584,3.912
		c0.315,0.2,0.819,0.382,1.088,0.605c0.062,0.055,0.12,0.147,0.175,0.212c-1.25,1.114-3.962-0.973-5.067-1.001
		c0.284,1.19,2.738,2.412,3.782,2.919l0.015,0.198c-1.63,0.526-3.724-0.509-5.101-1.278c-0.073-0.039-0.23-0.049-0.278,0.033
		c-0.509,0.781,3.876,2.753,4.047,3.194c-1.867,0.186-3.207-0.413-4.864-1.127c-0.143-0.064-0.262,0.027-0.292,0.183
		c1.103,1.209,2.557,2.011,4.063,2.614c-0.953,0.453-3.831-0.358-4.714-0.926h-0.237l-0.045,0.197
		c1.217,1.441,2.978,2.016,4.639,2.767c-1.355-0.042-2.726-0.145-4.033-0.548c-0.341-0.103-0.666-0.265-1.019-0.332l-0.121,0.197
		c1.933,1.762,3.926,1.51,5.899,2.647c-1.841-0.096-3.687-0.212-5.513-0.471c1.031,1.377,10.667,2.521,10.478,4.715
		c-1.634-1.461-5.329-2.158-7.479-2.372c0,0,8.137,2.532,7.466,6.204C-22.592-10.397-22.856-9.758-23.311-9.304 M-33.945-10.668
		c-0.269,0.379-1.773,1.289-1.644,0.303C-35.46-11.358-33.352-11.524-33.945-10.668 M-12.536-13.229
		c-0.438,0.659-0.997-0.962-1.035-1.246c-0.065-0.557,2.576-4.394,3.031-5.141c1.361-2.239,2.798-4.339,3.533-6.877
		c0.105-0.36,0.069-1.306,0.607-1.306c0.213,0,0.437,0.134,0.516,0.332c0.188,0.476-0.222,0.74-0.395,1.095
		c-0.279,0.548-0.145,2.452-0.075,3.103c0.254,2.424,1.451,4.434,2.615,6.513c0.044,0.087,0.156,0.321,0.029,0.394
		c-0.117,0.07-0.455-0.225-0.531-0.303c-1.58-1.601-2.171-4.394-3.078-5.494c-0.329-0.005-0.409,0.299-0.38,0.578
		c0.196,2.14,1.546,3.863,2.409,5.72c0.055,0.127-0.1,0.282-0.196,0.32c-1.126-0.78-2.372-3.47-3.03-4.717
		c-0.121-0.231-0.274-0.36-0.514-0.181c-0.45,1.196,1.87,4.45,1.981,5.752c-1.028-0.463-2.663-4.207-3.003-4.202l-0.163,0.275
		c0.124,1.599,1.366,3.219,1.392,4.398c-0.983-0.225-1.825-3.629-2.435-2.661c-0.205,1.083,0.499,1.907,0.767,2.889
		c0.028,0.112,0.054,0.3-0.06,0.38c-0.445,0.322-1.715-2.925-2.146-1.537C-12.817-14.76-12.511-13.736-12.536-13.229
		 M-14.072-18.916c-0.291-0.026-0.395-0.293-0.473-0.536c-0.44-1.368,0.195-7.926-0.43-8.21c-0.647-0.297-0.884,2.533-0.946,2.949
		c-0.16,1.135-0.156,2.288-0.308,3.424l-0.221-0.138c-0.681-1.411-0.028-5.793-0.208-6.052c-0.291-0.409-3.475,0.435-4.7-0.26
		l0.029-0.246c0.365-0.098,0.752,0,1.122,0c1.452,0,2.476-0.32,3.784-0.904c0.127-0.057,0.777-0.375,0.841-0.387
		c0.066-0.011,0.148,0,0.207,0c2.722,2.378,3.589,2.521,7.08,3.073c0.027,0.398-0.234,1.142-0.619,1.32
		c-0.389,0.185-0.755-1.432-1.11-0.422c-0.066,0.182-0.129,1.712-0.193,2.112l-0.252,0.016c-0.19-0.52-0.272-2.475-0.472-2.647
		l-0.275,0.076c-0.539,1.012-0.521,4.255-0.652,5.567l-0.228,0.153c-0.786-0.443-0.172-4.82-0.47-5.705
		c-0.043-0.14-0.177-0.218-0.323-0.182C-13.868-25.669-14.065-19.923-14.072-18.916 M-17.777-26.339
		c-0.434,0.987-0.112,2.248-0.519,3.086c-0.093,0.189-0.389,0.035-0.477-0.06C-19.361-23.942-19.375-26.848-17.777-26.339
		 M-20.474-26.277l0.296,0.263c-0.041,0.472,0.058,1.174-0.087,1.611C-20.622-23.35-22.013-25.997-20.474-26.277 M-50.229-23.18
		c0.844-0.391,0.998,1.19,0.697,1.223C-50.247-21.888-50.506-22.798-50.229-23.18 M-37.936-26.365
		c-1.579,0.037-3.145-0.13-4.706-0.431c-0.588-0.115-1.981-0.616-2.479-0.521c-1.066,0.207-2.977,0.831-3.98,1.282
		c-0.816,0.36-1.53,1.142-2.359,1.549c0.03-0.317,0.225-0.581,0.405-0.815c-0.039-0.243-0.275-0.322-0.262-0.612
		c0.501,0.042,1.429,0.281,1.483-0.587c0.017-0.242-0.359-0.437-0.233-0.662c1.958,0.631,3.495-0.48,5.373-1.195
		c0-0.248-0.351-0.502-0.477-0.712c0.079-0.149,0.264-0.149,0.404-0.119c1.385,0.304,2.642,2.126,4.242,1.613l0.128-0.231
		c-0.188-0.502-0.723-0.747-0.859-1.278l0.184-0.087c0.667,0.15,1.718,0.968,2.182,0.997c1.225,0.091,0.933-2.448,1.821-2.121
		c-0.132,0.719-0.166,1.648-0.356,2.344c-0.148,0.094-0.313,0.009-0.461,0.087C-37.988-27.373-37.917-26.863-37.936-26.365
		 M-52.366-22.98c-0.044,0.343,0.207,1.312,0.004,1.356C-53.257-21.418-53.506-23.665-52.366-22.98 M-52.217-26.43
		c0.079,0.359-1.313,1.196-1.412,0.241C-53.677-26.668-52.418-27.356-52.217-26.43 M-21.408-33.77
		c-0.888,0.464-2.2-0.239-2.97-0.664c-2.491-1.39-3.433-3.964-3.102-6.7c0.035-0.252,0.064-0.496,0.263-0.679l0.245,0.089
		C-25.715-37.419-24.615-36.641-21.408-33.77 M-50.279-28.927l-0.296,0.084c-0.658-0.32,0.098-1.991,0.812-1.403
		C-49.924-29.805-50.174-29.384-50.279-28.927 M-12.786-34.701c0.605-0.48,1.255-0.97,1.612-1.673
		c0.138-0.276,0.178-0.586,0.486-0.732C-10.389-35.217-12.322-34.226-12.786-34.701 M-10.023-35.13
		c0.396-1.076,0.821-2.02,0.885-3.192C-8.296-37.853-9.085-34.996-10.023-35.13 M-20.522-36.96
		c-4.342,0.501-5.991-4.977-5.148-7.872l0.341-0.107c0.134,0.549,0.175,1.116,0.283,1.664
		C-24.507-40.631-22.709-38.716-20.522-36.96 M-12.517-37.131c-0.385,2.267-2.777,1.455-2.664,0.705
		C-13.824-36.094-13.656-36.327-12.517-37.131 M-7.523-36.986c-0.109,0.002-0.296-0.04-0.357-0.153
		c-0.302-0.577-0.301-1.738-0.532-2.444c-0.116-0.376-0.322-0.724-0.395-1.115l0.192-0.06C-7.398-39.993-7.579-38.181-7.523-36.986
		 M-10.602-42.387c2.053,2.766-0.484,5.771-2.169,4.484C-14.743-39.408-12.127-41.866-10.602-42.387 M-13.847-37.51
		c-1.073,0.966-3.103-0.647-2.363-1.993C-15.278-38.385-15.365-38.122-13.847-37.51 M-14.516-39.262
		c-0.859,0.212-1.525-1.919-0.193-2.924C-14.54-41.25-15.179-41.048-14.516-39.262 M-6.417-39.619
		c-0.097,0.303-0.347-0.087-0.414-0.179c-0.747-1.027-1.312-2.177-2.319-2.999c-0.037-0.027-0.211-0.146-0.121-0.212
		c0.121-0.083,0.311-0.149,0.446-0.214C-7.648-42.843-6.624-40.765-6.417-39.619 M-12.624-43.644
		c-0.728,0.803-0.869,1.303-1.137,2.312C-14.086-40.105-14.733-44.225-12.624-43.644 M-20.352-40.482
		c-0.241,0.163-0.641,0.021-0.902-0.049c-2.23-0.614-3.613-3.937-1.827-5.858C-23.203-43.9-22.091-42.479-20.352-40.482
		 M-6.031-42.397c-0.344-0.058-1.85-0.915-2.07-1.157c0.245-0.108,0.473-0.292,0.753-0.306C-6.796-43.505-6.434-42.9-6.031-42.397
		 M-11.838-42.853l-0.209,0.029c-0.067-1.017,1.027-2.178,2.069-1.813l-0.089,0.231C-10.799-44.099-11.386-43.49-11.838-42.853
		 M-19.985-48.556c-0.578,1.093-0.624,2.263-0.276,3.387c0.09,0.278,1.116,1.817,0.322,1.732
		C-22.718-43.737-22.115-48.688-19.985-48.556 M-9.813-43.786c0.044-1.338,3.56-2.128,4.463-3.41c0.696-0.984-0.054-1.845,0-2.815
		c0.404,0.245,0.779,0.547,1.062,0.931h-0.294c-0.148,0.118-0.005,0.38,0.031,0.531c0.195,0.903-0.148,1.715-0.858,2.299
		C-6.577-45.3-8.168-45-9.327-44.015C-9.481-43.886-9.577-43.696-9.813-43.786 M-12.02-45.508c0.284-0.769,2.435-1.748,2.853-0.958
		c-0.39,0.322-1.747,0.657-2.32,0.897C-11.627-45.508-11.902-45.326-12.02-45.508 M-42.274-47.284
		c0.108,0.296-0.181,0.646-0.3,0.915C-43.315-44.707-43.614-47.685-42.274-47.284 M-10.395-48.375
		c-1.968,0.75-1.927,1.659-2.736,2.189c-0.136,0.088-0.269,0.089-0.38-0.039C-14.263-47.076-11.247-49.614-10.395-48.375
		 M-16.863-49.733l0.181,0.215c-0.885,1.328-0.994,2.577-1.391,4.036c-0.046,0.171-0.17,0.398-0.388,0.393
		C-19.702-45.111-18.71-50.055-16.863-49.733 M-15.702-45.957l-0.285-0.351c-0.169-1.685,1.548-3.695,3.059-2.904
		c-0.996,0.734-1.864,1.69-2.427,2.885C-15.431-46.166-15.511-45.955-15.702-45.957 M-43.496-48.841
		c-0.28,0.099-1.009,0.377-1.302,0.363l-0.084-0.323c0.177-0.552,1.056-0.775,1.425-0.337L-43.496-48.841z M-37.325-50.27
		c-0.28-0.902,1.439-1.488,1.439-0.659C-36.049-50.763-37.178-50.131-37.325-50.27 M-40.608-50.729
		c0.084,0.702-1.227-0.212-1.256-0.243C-42.277-51.403-40.756-51.86-40.608-50.729 M-22.646-30.743
		c-0.888,0.463-2.199-0.239-2.966-0.669c-2.49-1.389-3.434-3.962-3.102-6.699c0.03-0.249,0.065-0.498,0.259-0.676l0.248,0.088
		C-26.956-34.394-25.849-33.618-22.646-30.743"/>
</g>
<g id="g5887" transform="matrix(1.25,0,0,-1.25,464.13788,43.486875)">
	<path id="path5889" fill="#FFFFFF" d="M0,0c1.342,0.447,2.456,1.462,2.863,2.89c0.173,0.425,0.14,1.01,0.571,1.274
		c0.989,0.482,2.312,0.412,3.282-0.072c0.225-0.118,0.521-0.267,0.609-0.541c0.255-0.645,0.109-1.464,0.156-2.165
		c1.545,1.17,2.729,3.027,2.94,5.134c0.757-0.277,1.323-0.921,1.706-1.654c0.228-0.541,0.383-1.155,0.47-1.771
		c1.334-0.306,2.545-1.303,2.726-2.751c0.046-0.307,0.06-0.72-0.044-1.01c-0.125-0.087-0.166,0.133-0.252,0.178
		c-0.327,0.26-0.798,0.421-1.278,0.333c-1.352-0.553-2.405-1.552-3.669-2.255c-0.58-0.321-1.139-0.611-1.776-0.787
		C7.237-3.435,5.96-3.225,5.22-2.468L5.095-2.261c-1.011-0.936-2.133-1.536-3.37-2.047c-0.662-0.19-1.32-0.387-2.031-0.453
		l0.025-0.494c-3.491-0.008-3.663-3.972-3.663-3.972h-2.652v-0.814h-4.752v0.814h-2.593c0,0-0.07,3.964-3.664,3.972l0.024,0.482
		c-0.763,0.053-1.466,0.263-2.169,0.465c-1.236,0.511-2.359,1.111-3.366,2.047l-0.126-0.207c-0.739-0.757-2.02-0.967-3.087-0.729
		c-0.636,0.176-1.196,0.466-1.775,0.787c-1.266,0.703-2.316,1.702-3.67,2.255c-0.481,0.088-0.95-0.073-1.273-0.333
		c-0.091-0.045-0.13-0.265-0.262-0.178c-0.098,0.29-0.084,0.703-0.04,1.01c0.184,1.448,1.391,2.445,2.729,2.751
		c0.088,0.616,0.242,1.23,0.47,1.771c0.382,0.733,0.95,1.377,1.703,1.654c0.216-2.107,1.395-3.964,2.946-5.134
		c0.04,0.701-0.105,1.52,0.153,2.165c0.086,0.274,0.384,0.423,0.61,0.541c0.966,0.484,2.291,0.554,3.286,0.072
		c0.428-0.264,0.396-0.849,0.57-1.274c0.418-1.48,1.597-2.513,3.005-2.933c-0.11,0.836-0.215,1.385-0.215,1.385
		s3.664-0.478,5.736,0.414c0,0,0.508-3.541,3.42-3.539C-6-1.78-5.533,1.756-5.533,1.756c2.077-0.892,5.735-0.414,5.735-0.414
		S0.107,0.814,0,0 M-29.598,2.717c0-0.264,0.073-0.559,0.073-0.808c-0.14-0.015-0.297,0.075-0.455,0.058
		c-0.795,0.03-1.578-0.247-2.005-0.938c0.103,0,0.257,0.06,0.385,0.06c0.568-0.085,1.008-0.453,1.48-0.745
		c1.12-0.832,2.169-1.799,3.466-2.329c0.101,0.163,0.212,0.324,0.199,0.514c-0.74,0.946-1.906,1.508-2.557,2.56
		c-0.07,0.119-0.043,0.279,0.012,0.395c0.413,0.206,2.873-2.244,3.096-1.755c0.103,0.103,0.174,0.276,0.191,0.437
		c-1.493,1.085-2.777,2.52-3.37,4.335C-29.451,4.018-29.584,3.342-29.598,2.717 M-11.331-8.315c0,0,0.077,1.194-0.298,4.729
		c0,0-1.123-0.429-1.913-0.119c0.466,0.381,1.325,1.374,1.352,2.33c0,0-1.029-0.669-2.305-0.239
		c1.188,0.699,1.117,2.161,1.117,2.161c-1.639-0.333-2.805-0.237-2.805-0.237s0.382-2.163,0.395-4.641
		c3.031-1.197,2.871-3.984,2.871-3.984H-11.331z M-17.729-1.305c-1.8,0.481-3.299,1.549-4.16,3.38
		c-0.166,0.335-0.341,0.757-0.426,1.109c-0.142,0.131-0.242,0.208-0.456,0.189c-0.538-0.189,0.106-1.351,0.323-2.033
		c0.179-0.541,0.987-1.378,0.76-1.606c-0.556-0.132-0.753,0.293-1.012,0.57c-0.569,0.821-0.938,1.683-1.252,2.665
		c-0.114,0.174-0.442,0.267-0.483-0.19c0.089-0.792,0.359-1.55,0.682-2.252c1.176-2.405,3.566-3.925,6.202-4.186l-0.041,0.591
		c-1.128,0.23-2.212,0.656-3.107,1.34c-0.245,0.173-0.527,0.422-0.411,0.776c0.03,0.115,0.203,0.071,0.271,0.043
		c1.454-0.818,2.484-1.259,3.205-1.288L-17.729-1.305z M11.2,4.501c-0.602-1.815-1.877-3.25-3.369-4.335
		c0.014-0.161,0.085-0.334,0.188-0.437c0.227-0.489,2.684,1.961,3.095,1.755c0.06-0.116,0.086-0.276,0.014-0.395
		c-0.652-1.052-1.815-1.614-2.559-2.56c-0.016-0.19,0.102-0.351,0.198-0.514c1.295,0.53,2.346,1.497,3.469,2.329
		c0.469,0.292,0.908,0.66,1.476,0.745c0.128,0,0.284-0.06,0.385-0.06c-0.425,0.691-1.209,0.968-2.004,0.938
		c-0.155,0.017-0.31-0.073-0.453-0.058c0,0.249,0.071,0.544,0.071,0.808C11.696,3.342,11.567,4.018,11.2,4.501 M-4.968-8.315
		c0,0-0.155,2.787,2.874,3.984c0.01,2.478,0.391,4.641,0.391,4.641s-1.167-0.096-2.8,0.237c0,0-0.073-1.462,1.114-2.161
		c-1.277-0.43-2.305,0.239-2.305,0.239c0.031-0.956,0.887-1.949,1.35-2.33c-0.787-0.31-1.912,0.119-1.912,0.119
		c-0.373-3.535-0.298-4.729-0.298-4.729H-4.968z M-0.254-2.197C0.469-2.168,1.5-1.727,2.949-0.909
		c0.072,0.028,0.246,0.072,0.274-0.043c0.115-0.354-0.166-0.603-0.416-0.776c-0.891-0.684-1.977-1.11-3.102-1.34l-0.036-0.591
		C2.3-3.398,4.692-1.878,5.867,0.527c0.326,0.702,0.596,1.46,0.685,2.252C6.51,3.236,6.18,3.143,6.064,2.969
		C5.749,1.987,5.381,1.125,4.817,0.304c-0.258-0.277-0.46-0.702-1.01-0.57C3.575-0.038,4.381,0.799,4.564,1.34
		c0.221,0.682,0.857,1.844,0.32,2.033c-0.213,0.019-0.31-0.058-0.452-0.189C4.346,2.832,4.167,2.41,4.005,2.075
		c-0.857-1.831-2.366-2.899-4.161-3.38L-0.254-2.197z M-8.959-5.863c0.759,0,1.377,0.755,1.377,1.686
		c0,0.932-0.617,1.685-1.377,1.685c-0.766,0-1.381-0.753-1.381-1.685C-10.34-5.108-9.725-5.863-8.959-5.863"/>
</g>
<g id="g5891" transform="matrix(1.25,0,0,-1.25,440.50662,61.750495)">
	<path id="path5893" fill="#FFFFFF" d="M0,0l0.501-0.046l0.074-0.258c-0.682-0.905-4.306-0.55-5.071,0.166
		c-0.276,0.262-0.416,0.649-0.78,0.808L-5.31,0.974C-3.249,2.196-1.72,1.234,0,0 M-3.607-0.09l0.236,0.936l-1.252-0.161L-3.607-0.09
		z M-0.834-0.161L-1.89,0.533l-0.196-0.945L-0.834-0.161"/>
</g>
<g id="g5895" transform="matrix(1.25,0,0,-1.25,452.88412,44.949375)">
	<path id="path5897" fill="#FFFFFF" d="M-0.001,0C-0.83,0.004-2.683,1.008-2.687,3.01v0.799C-3.741,4.38-4.678,5.288-4.96,6.575
		c-0.316,1.29,0.069,2.738,0.811,3.702c-0.071,0.237-0.029,0.44,0.069,0.643c0.182,0.295,0.556,0.499,0.925,0.441
		c0.353-0.102,0.552,0.263,0.852,0.38c0.138,0.059,0.255,0.161,0.298,0.324c-1.025,0.656-2.506,1.267-2.947,2.512
		c0.399-0.062,0.882,0.024,1.293-0.078c-0.04,0.149-0.143,0.193-0.268,0.223c-0.397,0.131-0.838,0.234-1.165,0.526
		c-0.474,0.41-0.881,1.039-1.012,1.669c0.199-0.045,0.397-0.161,0.614-0.249c0.37-0.147,0.808-0.119,1.206-0.19
		c-0.85,0.483-1.889,0.688-2.243,1.653c-0.116,0.324-0.242,0.672-0.242,1.039c0.483-0.307,1.106-0.232,1.607-0.438l0.352-0.178
		c-0.256,0.457-0.453,1.098-0.921,1.333c-0.33-0.059-0.63-0.222-0.984-0.176c-0.709,0.03-1.32,0.6-1.537,1.259
		c-0.337,1.184,0.188,2.387,1.04,3.119c0.668,0.541,1.564,0.802,2.515,0.717c0.53-0.089,1.177-0.348,1.177-0.348
		s0.78,2.963,3.583,2.968c3.091-0.005,3.589-2.968,3.589-2.968s0.648,0.259,1.175,0.348c0.951,0.085,1.851-0.176,2.514-0.717
		c0.856-0.732,1.381-1.935,1.041-3.119c-0.214-0.659-0.825-1.229-1.537-1.259c-0.355-0.046-0.654,0.117-0.979,0.176
		c-0.472-0.235-0.67-0.876-0.924-1.333l0.356,0.178c0.495,0.206,1.12,0.131,1.605,0.438c0-0.367-0.128-0.715-0.245-1.039
		c-0.352-0.965-1.393-1.17-2.243-1.653c0.4,0.071,0.841,0.043,1.209,0.19c0.211,0.088,0.412,0.204,0.609,0.249
		c-0.127-0.63-0.541-1.259-1.011-1.669c-0.323-0.292-0.767-0.395-1.162-0.526c-0.131-0.03-0.226-0.074-0.27-0.223
		c0.415,0.102,0.894,0.016,1.293,0.078c-0.438-1.245-1.913-1.856-2.941-2.512c0.041-0.163,0.159-0.265,0.298-0.324
		c0.298-0.117,0.502-0.482,0.859-0.38c0.365,0.058,0.739-0.146,0.922-0.441c0.098-0.203,0.14-0.406,0.07-0.643
		c0.737-0.964,1.12-2.412,0.809-3.702C4.819,5.288,3.881,4.38,2.828,3.809V3.01C2.819,1.048,1.081,0-0.001,0 M-2.948,10.118
		c-0.143-0.046-0.125-0.21-0.108-0.339c0.098-0.293,0.439-0.293,0.679-0.437c-0.441-0.603-0.724-1.306-0.812-2.081
		c-0.053-1.01,0.045-2.136,0.971-2.607c0.151-0.043,0.266-0.173,0.423-0.143c-0.526,1.388-0.34,3.118,0.17,4.477
		c0.015,0.248,0.259,0.074,0.382,0.074C-0.967,8.988-0.64,9.016-0.39,8.931c-0.067-0.383-0.151-0.749-0.21-1.129
		c-0.125-1.199-0.055-2.514,0.17-3.659c0.286-0.073,0.611-0.087,0.911-0.041C0.838,5.65,0.808,7.346,0.54,8.946
		c0.366,0.057,0.751,0.1,1.122,0.131C1.845,8.8,1.93,8.461,2.045,8.138c0.354-1.114,0.185-2.503-0.173-3.554l0.283,0.027
		C2.738,4.82,3.027,5.388,3.212,5.929c0.364,1.242,0.041,2.635-0.798,3.413C2.631,9.486,2.98,9.544,3.051,9.868
		C2.98,10.014,2.828,10.145,2.642,10.1C1.248,9.503-0.613,9.428-2.077,9.882C-2.376,9.939-2.605,10.158-2.948,10.118 M-0.405,26.221
		c-0.822-0.169-1.477-0.666-1.798-1.408c-0.343-0.725-0.143-1.706,0.475-2.309c0.027,0.209,0.078,0.347,0.244,0.414
		c0.213,0.097,0.405-0.013,0.587-0.139c0.128-0.1,0.194-0.288,0.206-0.466c0.114-1.276-0.265-2.653-0.317-3.923
		c-0.019-0.9,0.018-2.436,0.077-3.298c0.084-0.673,0.132-1.358,0.344-1.936c0.061-0.12,0.135-0.236,0.296-0.224
		c0.108,0.007,0.11,0.13,0.146,0.201c-0.298,1.248-0.286,3.238-0.246,4.442c0.081,1.503,0.414,2.914,0.487,4.382
		c-0.013,0.59,0,1.185-0.337,1.659c-0.176,0.165-0.409,0.301-0.663,0.293c-0.241-0.014-0.438-0.126-0.741-0.395
		c-0.056,0.091-0.064,0.215-0.099,0.323c-0.011,0.575,0.207,1.158,0.734,1.406c0.449,0.28,1.147,0.287,1.628,0.074
		c0.747-0.319,1.061-1.06,1.059-1.97c-0.073-1.299-0.609-2.091-0.823-3.333c-0.426-1.84-0.496-4.972-0.206-6.91
		c0.048-0.08,0.11-0.199,0.221-0.15c0.138,0.026,0.128,0.16,0.173,0.262c-0.016,0.852,0.069,2.507,0.123,3.338
		c0.165,1.281,0.14,2.464,0.469,3.704c0.271,1.175,1.028,2.351,0.885,3.621c-0.087,0.544-0.248,0.991-0.565,1.425
		C1.396,25.938,0.548,26.347-0.405,26.221 M3.038,21.56c-0.517-0.933-0.558-2.061-0.608-3.169c0.02-1.6-0.023-3.208-0.474-4.701
		c0.998,0.477,0.873,1.814,1.065,2.802c0.141,1.623,0.03,3.457,0.878,4.877c0.361,0.615,1.026,1.003,1.791,0.886
		c0.552-0.046,0.937-0.489,1.118-0.979c0-0.115,0.034-0.249,0.073-0.367c0.302,0.194,0.447,0.612,0.359,1.011
		c-0.203,0.711-0.884,1.175-1.645,1.232C4.441,23.225,3.495,22.539,3.038,21.56 M-5.356,23.152
		c-0.764-0.057-1.445-0.521-1.652-1.232c-0.084-0.399,0.059-0.817,0.364-1.011c0.036,0.118,0.077,0.252,0.074,0.367
		c0.18,0.49,0.561,0.933,1.115,0.979c0.768,0.117,1.434-0.271,1.795-0.886c0.844-1.42,0.736-3.254,0.877-4.877
		c0.189-0.988,0.068-2.325,1.062-2.802c-0.447,1.493-0.488,3.101-0.471,4.701c-0.051,1.108-0.093,2.236-0.605,3.169
		C-3.255,22.539-4.205,23.225-5.356,23.152 M-1.58,3.402V1.717l0.739-0.655v2.092L-1.58,3.402"/>
</g>
<g id="g5899" transform="matrix(1.25,0,0,-1.25,239.56412,56.254375)">
	<path id="path5901" fill="#FFFFFF" d="M0,0c2.981,2.781,6.818,3.517,8.564,1.64c1.751-1.878,0.751-5.651-2.233-8.433
		c-2.982-2.783-6.817-3.515-8.567-1.643C-3.985-6.557-2.983-2.786,0,0"/>
</g>
<g id="g5903" transform="matrix(1.25,0,0,-1.25,337.17425,76.564245)">
	<path id="path5905" fill="#FFFFFF" d="M-0.001,0c-1.398,1.65-3.881,0.108-5.501-0.577c-6.612-3.987-12.612-9.413-18.074-15.524
		c-2.877-3.379-5.908-6.661-7.312-10.721c-0.109-0.651,0.307-1.489,0.775-1.809c1.727-0.508,3.156,0.417,4.664,0.957
		c8.771,4.202,16.751,12.83,22.861,20.772C-1.327-4.782,1.206-2.09-0.001,0 M-152.925-26.652c-4.674,1.798-9.382,3.487-14.52,4.203
		c-3.414,0.325-7.333,0.541-9.885-1.832c-0.521-0.559-0.549-1.042-0.318-1.554c1.078-2.122,3.516-2.15,5.53-2.614
		C-165.577-29.277-158.962-28.27-152.925-26.652 M-67.818,40.898l-0.615,0.722c-2.658,1.545-5.639-0.145-7.979-1.369
		c-12.325-7.292-24.557-24.243-32.285-35.747c1.941,0.327,9.488,2.819,14.631,6.063c9.095,5.066,20.746,16.173,25.633,25.698
		C-67.895,37.665-67.031,39.319-67.818,40.898 M-104.239-20.558c-9.021-7.189-19.472-11.358-31.476-10.099
		c-4.025,0.647-7.976,1.511-11.858,2.589c-8.23-2.336-17.864-3.919-26.814-1.978c-2.228,0.646-5.174,1.796-5.677,4.458
		c-0.179,2.405,1.938,4.381,3.88,5.353c10.423,5.067,23.363,1.081,33.497-2.049c4.028,2.95,7.511,6.9,10.605,10.711l6.563,8.156
		c1.043,1.509,3.427,4.635,3.427,4.635c-10.673,0.539-22.328,1.766-28.797,11.038c-3.125,5.032-2.765,12.113,0.325,17.074
		c6.503,9.525,17.251,12.362,28.107,13.009c6.757,0.181,13.046-1.148,18.902-3.27c0,0-0.141-1.078-0.248-1.616
		c-8.522,2.154-18.871,2.8-27.352-0.074c-7.046-2.048-15.314-8.374-16.104-16.316c-0.753-5.283,1.942-10.207,6.578-13.01
		c5.788-3.561,12.759-4.315,19.946-4.528c8.987,11.823,21.969,27.492,34.332,35.506c4.996,2.948,10.136,5.928,16.354,5.679
		c1.51-0.073,3.378-0.718,4.419-2.373c2.015-2.984,0.29-6.718-1.147-9.414c-6.365-11.068-19.489-21.995-30.164-26.958
		c-4.384-1.869-8.948-3.269-13.622-4.384c-5.284-8.086-9.241-13.701-16.955-19.408c-3.352-2.48-7.009-4.457-10.856-5.898
		c7.188-3.05,17.505-3.085,24.549,0.398c5.785,2.731,11.319,7.078,15.634,12.509l10.91,13.802h11.301l-23.398-29.759
		c-0.405-0.535-0.51-1.026-0.295-1.459c0.855-1.634,3.808,0,3.808,0s3.135,1.2,14.565,11.487c3.633,3.271,6.866,6.503,9.922,10.276
		l7.682,9.635h10.648c-2.552-3.308-4.854-6.436-7.119-9.598c5.462,4.455,10.891,8.914,17.614,10.245
		C-40,4.169-37.561,3.379-36.121,1.22c1.868-2.982,0.683-6.904-1.077-9.558l-2.263-2.839l-13.264-15.421
		c-0.396-0.483-0.353-0.942,0.038-1.274c0.973-0.669,2.335,0.451,3.341,0.77c4.959,2.373,9.011,5.449,13.255,9.475
		c1.184,1.329,2.304,3.501,3.421,4.867C-25.879-4.207-16.677,1.689-6.541,3.665c2.805,0.398,6.25,0.826,8.336-1.366
		c0.614-0.754,0.757-1.726,0.719-2.731l1.618,1.867l13.12,16.752l12.634,16.336h10.783L9.344-6.076L-6.612-26.669
		c-0.179-0.358-0.335-0.81-0.157-1.166c0.424-0.916,2.132-0.415,3.033-0.233c6.681,2.048,12.434,6.897,17.216,12.614L30.512,6.219
		l-6.667,0.004l2.394,2.868h6.578c0,0,19.388,25.104,19.747,25.465h10.78L43.918,9.236l15.977,0.03l-2.559-3.004L41.619,6.254
		l-25.66-32.816c-0.369-0.502-0.401-0.993-0.281-1.316c0.332-0.666,0.703-0.868,1.579-0.845c3.477,0.053,6.396,2.378,9.485,4.822
		c3.418,2.681,9.006,8.148,9.006,8.148l1.724-1.794c-5.605-5.036-11.088-11.039-17.02-12.988c-1.761-0.683-5.491-1.514-8.298,0.131
		c-2.771,1.622-3.141,4.535-1.155,8.478l-0.218-0.034C4.813-26.562-0.971-32.17-9.128-30.839c-1.584,0.29-3.056,1.619-3.739,3.092
		c-0.684,1.619-0.757,3.702-0.253,5.392c-1.545-1.043-3.089-2.482-4.671-3.561c-4.565-3.199-10.266-7.19-16.12-4.603
		c-2.408,1.258-3.254,4.249-3.18,6.869c0.071,0.647,0.145,1.366,0.25,1.942c-4.382-3.595-8.786-6.559-13.783-8.642
		c-2.093-0.771-7.27-1.877-9.849,0.744c-1.273,1.552-1.549,2.884-1.008,5.326c0.718,3.02,7.246,9.797,7.246,9.797L-41.547-0.18
		c0,0,0.562,0.637,0.024,1.386c-0.644,0.898-1.973,0.142-2.793-0.166c-6.036-2.514-12.869-8.087-20.753-15.97
		c-4.743-4.385-13.392-15.231-13.392-15.231l-10.755-0.008l8.17,10.399c-0.254,0.323-0.647-0.141-0.647-0.141
		s-8.232-8.188-13.727-10.416l-0.099-0.038c-2.092-0.771-7.281-1.874-9.859,0.745c-1.275,1.552-1.55,2.881-1.011,5.326
		C-105.793-21.864-104.239-20.558-104.239-20.558"/>
</g>
</svg>
