<?xml version="1.0" encoding="utf-8"?>
<!-- Generator: Adobe Illustrator 16.0.0, SVG Export Plug-In . SVG Version: 6.00 Build 0)  -->
<!DOCTYPE svg PUBLIC "-//W3C//DTD SVG 1.1//EN" "http://www.w3.org/Graphics/SVG/1.1/DTD/svg11.dtd">
<svg version="1.1" id="Layer_1" xmlns="http://www.w3.org/2000/svg" xmlns:xlink="http://www.w3.org/1999/xlink" x="0px" y="0px"
	 width="66px" height="66px" viewBox="0 0 66 66" enable-background="new 0 0 66 66" xml:space="preserve">
<g>
	<path opacity="0.1" fill="#FFFFFF" d="M25.8,61.69c0.453,0.447,1.181,0.447,1.629-0.005l4.265-4.265v5.94
		c0,0.635,0.515,1.153,1.152,1.153c0.634,0,1.15-0.519,1.15-1.153V57.46l4.227,4.226c0.449,0.452,1.178,0.452,1.625,0.005
		c0.449-0.452,0.449-1.178,0-1.629l-6.002-6.006c-0.252-0.249-0.584-0.347-0.91-0.316c-0.029,0-0.061-0.017-0.09-0.017
		c-0.038,0-0.073,0.017-0.108,0.02c-0.336-0.033-0.674,0.059-0.928,0.313l-6.007,6.006C25.356,60.513,25.354,61.238,25.8,61.69z"/>
	<g>
		<path opacity="0.1" fill="#FFFFFF" d="M49.962,33.302h4.535l5.87,5.871c0.45,0.45,1.179,0.45,1.628,0
			c0.448-0.448,0.448-1.174,0-1.623l-4.266-4.267h5.938c0.637,0,1.153-0.516,1.153-1.148c0-0.639-0.517-1.153-1.153-1.153h-5.899
			l4.227-4.226c0.448-0.452,0.448-1.181,0-1.629c-0.449-0.447-1.178-0.447-1.628,0L54.497,31h-4.535
			c-0.631,0-1.148,0.517-1.148,1.152C48.813,32.788,49.331,33.302,49.962,33.302z"/>
	</g>
	<g opacity="0.1">
		<path fill="#FFFFFF" d="M41.542,37.932c0-3.495-3.363-6.379-7.678-6.785v-9.42c1.456,0.187,2.781,0.764,3.739,1.655
			c0.465,0.439,1.268,0.479,1.791,0.086c0.524-0.389,0.573-1.056,0.104-1.492c-1.434-1.341-3.448-2.184-5.634-2.387v-2.155
			c0-0.585-0.566-1.06-1.271-1.06c-0.7,0-1.267,0.475-1.267,1.06v2.212c-4.092,0.562-7.213,3.36-7.213,6.727
			c0,3.368,3.122,6.166,7.213,6.728v9.403c-2.681-0.514-4.672-2.366-4.672-4.571c0-0.586-0.565-1.058-1.271-1.058
			c-0.702,0-1.271,0.472-1.271,1.058c0,3.365,3.122,6.165,7.213,6.729v2.211c0,0.586,0.567,1.057,1.267,1.057
			c0.704,0,1.271-0.471,1.271-1.057v-2.158C38.179,44.312,41.542,41.426,41.542,37.932z M26.655,26.372
			c0-2.205,1.992-4.056,4.672-4.573v9.147C28.646,30.432,26.655,28.581,26.655,26.372z M33.864,42.578v-9.295
			c2.912,0.376,5.135,2.315,5.135,4.648C38.998,40.263,36.776,42.198,33.864,42.578z"/>
		<path fill="#FFFFFF" d="M48.632,17.5c-0.294,0-0.592-0.115-0.812-0.338c-0.451-0.448-0.451-1.178,0-1.627l3.896-3.897
			c0.452-0.45,1.178-0.45,1.629,0c0.448,0.444,0.448,1.173,0,1.624l-3.899,3.9C49.22,17.385,48.928,17.5,48.632,17.5z"/>
		<g>
			<path fill="#FFFFFF" d="M13.123,53.008c-0.291,0-0.588-0.113-0.813-0.34c-0.449-0.449-0.449-1.178,0-1.624l3.901-3.9
				c0.447-0.448,1.175-0.448,1.627,0c0.447,0.451,0.447,1.179,0,1.625l-3.899,3.899C13.709,52.895,13.417,53.008,13.123,53.008z"/>
		</g>
		<g>
			<path fill="#FFFFFF" d="M52.533,54.163c-0.298,0-0.593-0.107-0.817-0.335l-3.896-3.897c-0.451-0.451-0.451-1.179,0-1.628
				c0.449-0.448,1.176-0.448,1.625,0l3.899,3.898c0.448,0.449,0.448,1.182,0,1.627C53.119,54.056,52.825,54.163,52.533,54.163z"/>
		</g>
		<path fill="#FFFFFF" d="M17.024,18.66c-0.296,0-0.591-0.112-0.813-0.338l-3.901-3.897c-0.449-0.449-0.449-1.178,0-1.627
			c0.451-0.451,1.175-0.451,1.629,0l3.899,3.897c0.447,0.451,0.447,1.179,0,1.627C17.612,18.546,17.318,18.66,17.024,18.66z"/>
	</g>
	<path opacity="0.1" fill="#FFFFFF" d="M40.057,3.328c-0.449-0.449-1.177-0.449-1.628,0.003l-4.266,4.267V1.655
		c0-0.633-0.516-1.15-1.15-1.15c-0.633,0-1.15,0.517-1.15,1.15v5.903l-4.227-4.227c-0.447-0.452-1.18-0.452-1.627-0.003
		c-0.449,0.449-0.449,1.177,0,1.626l6.004,6.007c0.252,0.25,0.585,0.345,0.908,0.317c0.032,0.005,0.06,0.02,0.092,0.02
		c0.037,0,0.072-0.02,0.108-0.021c0.335,0.034,0.675-0.062,0.929-0.315l6.005-6.007C40.503,4.505,40.504,3.777,40.057,3.328z"/>
	<g>
		<path opacity="0.1" fill="#FFFFFF" d="M16.035,31h-4.532l-5.874-5.873c-0.449-0.447-1.177-0.447-1.626,0
			c-0.45,0.449-0.45,1.178,0.002,1.629l4.268,4.263H2.33c-0.635,0-1.15,0.513-1.15,1.152c0,0.633,0.515,1.146,1.15,1.146h5.905
			L4.005,37.55c-0.452,0.449-0.452,1.175-0.002,1.623c0.449,0.45,1.177,0.45,1.626,0l5.874-5.873h4.532
			c0.636,0,1.155-0.512,1.155-1.148C17.19,31.514,16.67,31,16.035,31z"/>
	</g>
</g>
</svg>
