<?xml version="1.0" encoding="UTF-8" standalone="no"?>
<svg width="64px" height="73px" viewBox="0 0 64 73" version="1.1" xmlns="http://www.w3.org/2000/svg" xmlns:xlink="http://www.w3.org/1999/xlink">
    <!-- Generator: Sketch 41 (35326) - http://www.bohemiancoding.com/sketch -->
    <title>Shape</title>
    <desc>Created with Sketch.</desc>
    <defs></defs>
    <g id="Welcome" stroke="none" stroke-width="1" fill="none" fill-rule="evenodd" opacity="0.119999997">
        <g id="Desktop" transform="translate(-150.000000, -360.000000)" fill="#FFFFFF">
            <g id="header-snowflakes" transform="translate(117.000000, 130.000000)">
                <g id="snowflakes" transform="translate(53.500000, 223.500000) rotate(180.000000) translate(-53.500000, -223.500000) translate(0.000000, 144.000000)">
                    <path d="M70.5629776,17.478389 L63.6039894,21.4433939 L63.6039894,13.5133841 C63.6039894,12.3805256 62.7138862,11.4904224 61.5810277,11.4904224 C60.4481691,11.4904224 59.558066,12.3805256 59.558066,13.5133841 L59.558066,23.7900295 L43.7789648,32.9338163 L43.7789648,14.6462426 L52.6799962,9.46746072 C53.6510178,8.90103144 53.9746917,7.68725443 53.4082624,6.71623282 C52.8418332,5.7452112 51.6280561,5.42153733 50.6570345,5.98796661 L43.7789648,9.95297152 L43.7789648,2.02296169 C43.7789648,0.890103144 42.8888616,0 41.7560031,0 C40.6231445,0 39.7330414,0.890103144 39.7330414,2.02296169 L39.7330414,9.95297152 L32.8549716,5.98796661 C31.88395,5.42153733 30.670173,5.7452112 30.1037437,6.71623282 C29.5373145,7.68725443 29.8609883,8.90103144 30.83201,9.46746072 L39.7330414,14.6462426 L39.7330414,32.9338163 L23.9539402,23.7900295 L23.9539402,13.5133841 C23.9539402,12.3805256 23.0638371,11.4904224 21.9309785,11.4904224 C20.79812,11.4904224 19.9080168,12.3805256 19.9080168,13.5133841 L19.9080168,21.4433939 L13.0299471,17.478389 C12.0589255,16.9119597 10.8451484,17.2356336 10.2787192,18.2066552 C9.71228989,19.1776768 10.0359638,20.3914539 11.0069854,20.9578831 L17.8850551,24.922888 L11.0069854,28.887893 C10.0359638,29.4543222 9.71228989,30.6680992 10.2787192,31.6391209 C10.6833115,32.2864686 11.3306592,32.6910609 12.0589255,32.6910609 C12.3825993,32.6910609 12.7871917,32.6101425 13.0299471,32.4483055 L21.9309785,27.2695236 L37.7100797,36.4133105 L21.9309785,45.5570973 L13.0299471,40.3783154 C12.0589255,39.8118861 10.8451484,40.13556 10.2787192,41.1065816 C9.71228989,42.0776032 10.0359638,43.2913802 11.0069854,43.8578095 L17.8850551,47.8228144 L11.0069854,51.7878193 C10.0359638,52.3542486 9.71228989,53.5680256 10.2787192,54.5390472 C10.6833115,55.186395 11.3306592,55.5909873 12.0589255,55.5909873 C12.3825993,55.5909873 12.7871917,55.5100688 13.0299471,55.3482319 L19.9080168,51.383227 L19.9080168,59.3132368 C19.9080168,60.4460954 20.79812,61.3361985 21.9309785,61.3361985 C23.0638371,61.3361985 23.9539402,60.4460954 23.9539402,59.3132368 L23.9539402,49.0365914 L39.7330414,39.8928046 L39.7330414,58.1803783 L30.83201,63.3591602 C29.8609883,63.9255895 29.5373145,65.1393665 30.1037437,66.1103881 C30.5083361,66.7577358 31.1556838,67.1623282 31.88395,67.1623282 C32.2076239,67.1623282 32.6122162,67.0814097 32.8549716,66.9195728 L39.7330414,62.9545678 L39.7330414,70.8845777 C39.7330414,72.0174362 40.6231445,72.9075394 41.7560031,72.9075394 C42.8888616,72.9075394 43.7789648,72.0174362 43.7789648,70.8845777 L43.7789648,62.9545678 L50.6570345,66.9195728 C50.9807084,67.0814097 51.3043823,67.1623282 51.6280561,67.1623282 C52.3563224,67.1623282 53.0036701,66.8386543 53.4082624,66.1103881 C53.9746917,65.1393665 53.6510178,63.9255895 52.6799962,63.3591602 L43.7789648,58.1803783 L43.7789648,39.8928046 L59.558066,49.0365914 L59.558066,59.3132368 C59.558066,60.4460954 60.4481691,61.3361985 61.5810277,61.3361985 C62.7138862,61.3361985 63.6039894,60.4460954 63.6039894,59.3132368 L63.6039894,51.383227 L70.4820591,55.3482319 C70.805733,55.5100688 71.1294069,55.5909873 71.4530807,55.5909873 C72.1813469,55.5909873 72.8286947,55.2673134 73.233287,54.5390472 C73.7997163,53.5680256 73.4760424,52.3542486 72.5050208,51.7878193 L65.6269511,47.8228144 L72.5050208,43.8578095 C73.4760424,43.2913802 73.7997163,42.0776032 73.233287,41.1065816 C72.6668577,40.13556 71.4530807,39.8118861 70.4820591,40.3783154 L61.5810277,45.5570973 L45.8019265,36.4133105 L61.5810277,27.2695236 L70.4820591,32.4483055 C70.805733,32.6101425 71.1294069,32.6910609 71.4530807,32.6910609 C72.1813469,32.6910609 72.8286947,32.3673871 73.233287,31.6391209 C73.7997163,30.6680992 73.4760424,29.4543222 72.5050208,28.887893 L65.6269511,24.922888 L72.5050208,20.9578831 C73.5569609,20.3914539 73.8806348,19.1776768 73.3142055,18.2066552 C72.7477762,17.2356336 71.5339992,16.9119597 70.5629776,17.478389 Z" id="Shape"></path>
                </g>
            </g>
        </g>
    </g>
</svg>