<?xml version="1.0" encoding="UTF-8" standalone="no"?>
<svg width="107px" height="159px" viewBox="0 0 107 159" version="1.1" xmlns="http://www.w3.org/2000/svg" xmlns:xlink="http://www.w3.org/1999/xlink">
    <!-- Generator: Sketch 41 (35326) - http://www.bohemiancoding.com/sketch -->
    <title>snowflakes</title>
    <desc>Created with Sketch.</desc>
    <defs></defs>
    <g id="Welcome" stroke="none" stroke-width="1" fill="none" fill-rule="evenodd">
        <g id="Desktop" transform="translate(-117.000000, -274.000000)" fill="#FFFFFF">
            <g id="header-snowflakes" transform="translate(117.000000, 130.000000)">
                <g id="snowflakes" transform="translate(53.500000, 223.500000) rotate(180.000000) translate(-53.500000, -223.500000) translate(0.000000, 144.000000)">
                    <path d="M70.5629776,17.478389 L63.6039894,21.4433939 L63.6039894,13.5133841 C63.6039894,12.3805256 62.7138862,11.4904224 61.5810277,11.4904224 C60.4481691,11.4904224 59.558066,12.3805256 59.558066,13.5133841 L59.558066,23.7900295 L43.7789648,32.9338163 L43.7789648,14.6462426 L52.6799962,9.46746072 C53.6510178,8.90103144 53.9746917,7.68725443 53.4082624,6.71623282 C52.8418332,5.7452112 51.6280561,5.42153733 50.6570345,5.98796661 L43.7789648,9.95297152 L43.7789648,2.02296169 C43.7789648,0.890103144 42.8888616,0 41.7560031,0 C40.6231445,0 39.7330414,0.890103144 39.7330414,2.02296169 L39.7330414,9.95297152 L32.8549716,5.98796661 C31.88395,5.42153733 30.670173,5.7452112 30.1037437,6.71623282 C29.5373145,7.68725443 29.8609883,8.90103144 30.83201,9.46746072 L39.7330414,14.6462426 L39.7330414,32.9338163 L23.9539402,23.7900295 L23.9539402,13.5133841 C23.9539402,12.3805256 23.0638371,11.4904224 21.9309785,11.4904224 C20.79812,11.4904224 19.9080168,12.3805256 19.9080168,13.5133841 L19.9080168,21.4433939 L13.0299471,17.478389 C12.0589255,16.9119597 10.8451484,17.2356336 10.2787192,18.2066552 C9.71228989,19.1776768 10.0359638,20.3914539 11.0069854,20.9578831 L17.8850551,24.922888 L11.0069854,28.887893 C10.0359638,29.4543222 9.71228989,30.6680992 10.2787192,31.6391209 C10.6833115,32.2864686 11.3306592,32.6910609 12.0589255,32.6910609 C12.3825993,32.6910609 12.7871917,32.6101425 13.0299471,32.4483055 L21.9309785,27.2695236 L37.7100797,36.4133105 L21.9309785,45.5570973 L13.0299471,40.3783154 C12.0589255,39.8118861 10.8451484,40.13556 10.2787192,41.1065816 C9.71228989,42.0776032 10.0359638,43.2913802 11.0069854,43.8578095 L17.8850551,47.8228144 L11.0069854,51.7878193 C10.0359638,52.3542486 9.71228989,53.5680256 10.2787192,54.5390472 C10.6833115,55.186395 11.3306592,55.5909873 12.0589255,55.5909873 C12.3825993,55.5909873 12.7871917,55.5100688 13.0299471,55.3482319 L19.9080168,51.383227 L19.9080168,59.3132368 C19.9080168,60.4460954 20.79812,61.3361985 21.9309785,61.3361985 C23.0638371,61.3361985 23.9539402,60.4460954 23.9539402,59.3132368 L23.9539402,49.0365914 L39.7330414,39.8928046 L39.7330414,58.1803783 L30.83201,63.3591602 C29.8609883,63.9255895 29.5373145,65.1393665 30.1037437,66.1103881 C30.5083361,66.7577358 31.1556838,67.1623282 31.88395,67.1623282 C32.2076239,67.1623282 32.6122162,67.0814097 32.8549716,66.9195728 L39.7330414,62.9545678 L39.7330414,70.8845777 C39.7330414,72.0174362 40.6231445,72.9075394 41.7560031,72.9075394 C42.8888616,72.9075394 43.7789648,72.0174362 43.7789648,70.8845777 L43.7789648,62.9545678 L50.6570345,66.9195728 C50.9807084,67.0814097 51.3043823,67.1623282 51.6280561,67.1623282 C52.3563224,67.1623282 53.0036701,66.8386543 53.4082624,66.1103881 C53.9746917,65.1393665 53.6510178,63.9255895 52.6799962,63.3591602 L43.7789648,58.1803783 L43.7789648,39.8928046 L59.558066,49.0365914 L59.558066,59.3132368 C59.558066,60.4460954 60.4481691,61.3361985 61.5810277,61.3361985 C62.7138862,61.3361985 63.6039894,60.4460954 63.6039894,59.3132368 L63.6039894,51.383227 L70.4820591,55.3482319 C70.805733,55.5100688 71.1294069,55.5909873 71.4530807,55.5909873 C72.1813469,55.5909873 72.8286947,55.2673134 73.233287,54.5390472 C73.7997163,53.5680256 73.4760424,52.3542486 72.5050208,51.7878193 L65.6269511,47.8228144 L72.5050208,43.8578095 C73.4760424,43.2913802 73.7997163,42.0776032 73.233287,41.1065816 C72.6668577,40.13556 71.4530807,39.8118861 70.4820591,40.3783154 L61.5810277,45.5570973 L45.8019265,36.4133105 L61.5810277,27.2695236 L70.4820591,32.4483055 C70.805733,32.6101425 71.1294069,32.6910609 71.4530807,32.6910609 C72.1813469,32.6910609 72.8286947,32.3673871 73.233287,31.6391209 C73.7997163,30.6680992 73.4760424,29.4543222 72.5050208,28.887893 L65.6269511,24.922888 L72.5050208,20.9578831 C73.5569609,20.3914539 73.8806348,19.1776768 73.3142055,18.2066552 C72.7477762,17.2356336 71.5339992,16.9119597 70.5629776,17.478389 Z" id="Shape" opacity="0.119999997"></path>
                    <path d="M104.762698,85.131765 L99.6192404,88.0623395 L99.6192404,82.2011906 C99.6192404,81.3638836 98.9613563,80.7059995 98.1240493,80.7059995 C97.2867423,80.7059995 96.6288582,81.3638836 96.6288582,82.2011906 L96.6288582,89.7967611 L84.966368,96.5550247 L84.966368,83.0384976 L91.5452086,79.2108085 C92.2629004,78.792155 92.5021309,77.8950403 92.0834774,77.1773486 C91.6648239,76.4596569 90.7677093,76.2204264 90.0500176,76.6390798 L84.966368,79.5696543 L84.966368,73.7085054 C84.966368,72.8711984 84.3084839,72.2133143 83.4711769,72.2133143 C82.6338699,72.2133143 81.9759859,72.8711984 81.9759859,73.7085054 L81.9759859,79.5696543 L76.8923363,76.6390798 C76.1746446,76.2204264 75.27753,76.4596569 74.8588765,77.1773486 C74.440223,77.8950403 74.6794535,78.792155 75.3971452,79.2108085 L81.9759859,83.0384976 L81.9759859,96.5550247 L70.3134956,89.7967611 L70.3134956,82.2011906 C70.3134956,81.3638836 69.6556116,80.7059995 68.8183046,80.7059995 C67.9809976,80.7059995 67.3231135,81.3638836 67.3231135,82.2011906 L67.3231135,88.0623395 L62.2394639,85.131765 C61.5217722,84.7131116 60.6246576,84.9523421 60.2060041,85.6700338 C59.7873506,86.3877255 60.0265812,87.2848402 60.7442729,87.7034937 L65.8279225,90.6340681 L60.7442729,93.5646426 C60.0265812,93.9832961 59.7873506,94.8804107 60.2060041,95.5981024 C60.5050423,96.0765636 60.9835035,96.3756018 61.5217722,96.3756018 C61.7610028,96.3756018 62.060041,96.3157942 62.2394639,96.1961789 L68.8183046,92.3684898 L80.4807948,99.1267533 L68.8183046,105.885017 L62.2394639,102.057328 C61.5217722,101.638674 60.6246576,101.877905 60.2060041,102.595597 C59.7873506,103.313288 60.0265812,104.210403 60.7442729,104.629056 L65.8279225,107.559631 L60.7442729,110.490205 C60.0265812,110.908859 59.7873506,111.805973 60.2060041,112.523665 C60.5050423,113.002126 60.9835035,113.301165 61.5217722,113.301165 C61.7610028,113.301165 62.060041,113.241357 62.2394639,113.121742 L67.3231135,110.191167 L67.3231135,116.052316 C67.3231135,116.889623 67.9809976,117.547507 68.8183046,117.547507 C69.6556116,117.547507 70.3134956,116.889623 70.3134956,116.052316 L70.3134956,108.456746 L81.9759859,101.698482 L81.9759859,115.215009 L75.3971452,119.042698 C74.6794535,119.461352 74.440223,120.358466 74.8588765,121.076158 C75.1579147,121.554619 75.6363758,121.853657 76.1746446,121.853657 C76.4138752,121.853657 76.7129134,121.79385 76.8923363,121.674234 L81.9759859,118.74366 L81.9759859,124.604809 C81.9759859,125.442116 82.6338699,126.1 83.4711769,126.1 C84.3084839,126.1 84.966368,125.442116 84.966368,124.604809 L84.966368,118.74366 L90.0500176,121.674234 C90.2892482,121.79385 90.5284787,121.853657 90.7677093,121.853657 C91.3059781,121.853657 91.7844392,121.614427 92.0834774,121.076158 C92.5021309,120.358466 92.2629004,119.461352 91.5452086,119.042698 L84.966368,115.215009 L84.966368,101.698482 L96.6288582,108.456746 L96.6288582,116.052316 C96.6288582,116.889623 97.2867423,117.547507 98.1240493,117.547507 C98.9613563,117.547507 99.6192404,116.889623 99.6192404,116.052316 L99.6192404,110.191167 L104.70289,113.121742 C104.942121,113.241357 105.181351,113.301165 105.420582,113.301165 C105.95885,113.301165 106.437312,113.061934 106.73635,112.523665 C107.155003,111.805973 106.915773,110.908859 106.198081,110.490205 L101.114431,107.559631 L106.198081,104.629056 C106.915773,104.210403 107.155003,103.313288 106.73635,102.595597 C106.317696,101.877905 105.420582,101.638674 104.70289,102.057328 L98.1240493,105.885017 L86.4615591,99.1267533 L98.1240493,92.3684898 L104.70289,96.1961789 C104.942121,96.3157942 105.181351,96.3756018 105.420582,96.3756018 C105.95885,96.3756018 106.437312,96.1363712 106.73635,95.5981024 C107.155003,94.8804107 106.915773,93.9832961 106.198081,93.5646426 L101.114431,90.6340681 L106.198081,87.7034937 C106.97558,87.2848402 107.214811,86.3877255 106.796157,85.6700338 C106.377504,84.9523421 105.480389,84.7131116 104.762698,85.131765 Z" id="Shape" opacity="0.119999997"></path>
                    <path d="M30.4767303,131.008855 L26.9748019,133.00414 L26.9748019,129.01357 C26.9748019,128.443489 26.5268809,127.995568 25.9567995,127.995568 C25.3867182,127.995568 24.9387971,128.443489 24.9387971,129.01357 L24.9387971,134.185023 L16.9983782,138.786394 L16.9983782,129.583652 L21.4775889,126.977566 C21.96623,126.692525 22.1291104,126.081724 21.8440697,125.593082 C21.5590291,125.104441 20.9482276,124.941561 20.4595864,125.226601 L16.9983782,127.221886 L16.9983782,123.231317 C16.9983782,122.661235 16.5504571,122.213314 15.9803758,122.213314 C15.4102944,122.213314 14.9623734,122.661235 14.9623734,123.231317 L14.9623734,127.221886 L11.5011651,125.226601 C11.012524,124.941561 10.4017225,125.104441 10.1166818,125.593082 C9.83164116,126.081724 9.99452155,126.692525 10.4831627,126.977566 L14.9623734,129.583652 L14.9623734,138.786394 L7.02195448,134.185023 L7.02195448,129.01357 C7.02195448,128.443489 6.57403342,127.995568 6.00395206,127.995568 C5.4338707,127.995568 4.98594964,128.443489 4.98594964,129.01357 L4.98594964,133.00414 L1.5247414,131.008855 C1.03610024,130.723815 0.425298789,130.886695 0.140258111,131.375336 C-0.144782567,131.863977 0.0180978208,132.474779 0.506738983,132.759819 L3.96794722,134.755104 L0.506738983,136.750389 C0.0180978208,137.03543 -0.144782567,137.646231 0.140258111,138.134872 C0.343858596,138.460633 0.669619371,138.664233 1.03610024,138.664233 C1.19898063,138.664233 1.40258111,138.623513 1.5247414,138.542073 L6.00395206,135.935987 L13.9443709,140.537358 L6.00395206,145.138729 L1.5247414,142.532643 C1.03610024,142.247602 0.425298789,142.410482 0.140258111,142.899124 C-0.144782567,143.387765 0.0180978208,143.998566 0.506738983,144.283607 L3.96794722,146.278892 L0.506738983,148.274176 C0.0180978208,148.559217 -0.144782567,149.170018 0.140258111,149.65866 C0.343858596,149.98442 0.669619371,150.188021 1.03610024,150.188021 C1.19898063,150.188021 1.40258111,150.147301 1.5247414,150.065861 L4.98594964,148.070576 L4.98594964,152.061145 C4.98594964,152.631227 5.4338707,153.079148 6.00395206,153.079148 C6.57403342,153.079148 7.02195448,152.631227 7.02195448,152.061145 L7.02195448,146.889693 L14.9623734,142.288322 L14.9623734,151.491064 L10.4831627,154.09715 C9.99452155,154.382191 9.83164116,154.992992 10.1166818,155.481633 C10.3202823,155.807394 10.6460431,156.010995 11.012524,156.010995 C11.1754044,156.010995 11.3790048,155.970275 11.5011651,155.888834 L14.9623734,153.89355 L14.9623734,157.884119 C14.9623734,158.454201 15.4102944,158.902122 15.9803758,158.902122 C16.5504571,158.902122 16.9983782,158.454201 16.9983782,157.884119 L16.9983782,153.89355 L20.4595864,155.888834 C20.6224668,155.970275 20.7853472,156.010995 20.9482276,156.010995 C21.3147085,156.010995 21.6404693,155.848114 21.8440697,155.481633 C22.1291104,154.992992 21.96623,154.382191 21.4775889,154.09715 L16.9983782,151.491064 L16.9983782,142.288322 L24.9387971,146.889693 L24.9387971,152.061145 C24.9387971,152.631227 25.3867182,153.079148 25.9567995,153.079148 C26.5268809,153.079148 26.9748019,152.631227 26.9748019,152.061145 L26.9748019,148.070576 L30.4360102,150.065861 C30.5988906,150.147301 30.761771,150.188021 30.9246513,150.188021 C31.2911322,150.188021 31.616893,150.02514 31.8204935,149.65866 C32.1055341,149.170018 31.9426538,148.559217 31.4540126,148.274176 L27.9928044,146.278892 L31.4540126,144.283607 C31.9426538,143.998566 32.1055341,143.387765 31.8204935,142.899124 C31.5354528,142.410482 30.9246513,142.247602 30.4360102,142.532643 L25.9567995,145.138729 L18.0163806,140.537358 L25.9567995,135.935987 L30.4360102,138.542073 C30.5988906,138.623513 30.761771,138.664233 30.9246513,138.664233 C31.2911322,138.664233 31.616893,138.501353 31.8204935,138.134872 C32.1055341,137.646231 31.9426538,137.03543 31.4540126,136.750389 L27.9928044,134.755104 L31.4540126,132.759819 C31.9833739,132.474779 32.1462542,131.863977 31.8612136,131.375336 C31.5761729,130.886695 30.9653714,130.723815 30.4767303,131.008855 Z" id="Shape" opacity="0.115452423"></path>
                </g>
            </g>
        </g>
    </g>
</svg>