<?xml version="1.0" encoding="UTF-8" standalone="no"?>
<svg width="117px" height="181px" viewBox="0 0 117 181" version="1.1" xmlns="http://www.w3.org/2000/svg" xmlns:xlink="http://www.w3.org/1999/xlink">
    <!-- Generator: Sketch 41 (35326) - http://www.bohemiancoding.com/sketch -->
    <title>snowflakes</title>
    <desc>Created with Sketch.</desc>
    <defs></defs>
    <g id="Welcome" stroke="none" stroke-width="1" fill="none" fill-rule="evenodd">
        <g id="Desktop" transform="translate(-29.000000, -2503.000000)" fill="#2560EB">
            <g id="snowflakes" transform="translate(87.500000, 2593.500000) rotate(180.000000) translate(-87.500000, -2593.500000) translate(29.000000, 2503.000000)">
                <path d="M74.8444444,21.6 L66.2444444,26.5 L66.2444444,16.7 C66.2444444,15.3 65.1444444,14.2 63.7444444,14.2 C62.3444444,14.2 61.2444444,15.3 61.2444444,16.7 L61.2444444,29.4 L41.7444444,40.7 L41.7444444,18.1 L52.7444444,11.7 C53.9444444,11 54.3444444,9.5 53.6444444,8.3 C52.9444444,7.1 51.4444444,6.7 50.2444444,7.4 L41.7444444,12.3 L41.7444444,2.5 C41.7444444,1.1 40.6444444,0 39.2444444,0 C37.8444444,0 36.7444444,1.1 36.7444444,2.5 L36.7444444,12.3 L28.2444444,7.4 C27.0444444,6.7 25.5444444,7.1 24.8444444,8.3 C24.1444444,9.5 24.5444444,11 25.7444444,11.7 L36.7444444,18.1 L36.7444444,40.7 L17.2444444,29.4 L17.2444444,16.7 C17.2444444,15.3 16.1444444,14.2 14.7444444,14.2 C13.3444444,14.2 12.2444444,15.3 12.2444444,16.7 L12.2444444,26.5 L3.74444444,21.6 C2.54444444,20.9 1.04444444,21.3 0.344444444,22.5 C-0.355555556,23.7 0.0444444444,25.2 1.24444444,25.9 L9.74444444,30.8 L1.24444444,35.7 C0.0444444444,36.4 -0.355555556,37.9 0.344444444,39.1 C0.844444444,39.9 1.64444444,40.4 2.54444444,40.4 C2.94444444,40.4 3.44444444,40.3 3.74444444,40.1 L14.7444444,33.7 L34.2444444,45 L14.7444444,56.3 L3.74444444,49.9 C2.54444444,49.2 1.04444444,49.6 0.344444444,50.8 C-0.355555556,52 0.0444444444,53.5 1.24444444,54.2 L9.74444444,59.1 L1.24444444,64 C0.0444444444,64.7 -0.355555556,66.2 0.344444444,67.4 C0.844444444,68.2 1.64444444,68.7 2.54444444,68.7 C2.94444444,68.7 3.44444444,68.6 3.74444444,68.4 L12.2444444,63.5 L12.2444444,73.3 C12.2444444,74.7 13.3444444,75.8 14.7444444,75.8 C16.1444444,75.8 17.2444444,74.7 17.2444444,73.3 L17.2444444,60.6 L36.7444444,49.3 L36.7444444,71.9 L25.7444444,78.3 C24.5444444,79 24.1444444,80.5 24.8444444,81.7 C25.3444444,82.5 26.1444444,83 27.0444444,83 C27.4444444,83 27.9444444,82.9 28.2444444,82.7 L36.7444444,77.8 L36.7444444,87.6 C36.7444444,89 37.8444444,90.1 39.2444444,90.1 C40.6444444,90.1 41.7444444,89 41.7444444,87.6 L41.7444444,77.8 L50.2444444,82.7 C50.6444444,82.9 51.0444444,83 51.4444444,83 C52.3444444,83 53.1444444,82.6 53.6444444,81.7 C54.3444444,80.5 53.9444444,79 52.7444444,78.3 L41.7444444,71.9 L41.7444444,49.3 L61.2444444,60.6 L61.2444444,73.3 C61.2444444,74.7 62.3444444,75.8 63.7444444,75.8 C65.1444444,75.8 66.2444444,74.7 66.2444444,73.3 L66.2444444,63.5 L74.7444444,68.4 C75.1444444,68.6 75.5444444,68.7 75.9444444,68.7 C76.8444444,68.7 77.6444444,68.3 78.1444444,67.4 C78.8444444,66.2 78.4444444,64.7 77.2444444,64 L68.7444444,59.1 L77.2444444,54.2 C78.4444444,53.5 78.8444444,52 78.1444444,50.8 C77.4444444,49.6 75.9444444,49.2 74.7444444,49.9 L63.7444444,56.3 L44.2444444,45 L63.7444444,33.7 L74.7444444,40.1 C75.1444444,40.3 75.5444444,40.4 75.9444444,40.4 C76.8444444,40.4 77.6444444,40 78.1444444,39.1 C78.8444444,37.9 78.4444444,36.4 77.2444444,35.7 L68.7444444,30.8 L77.2444444,25.9 C78.5444444,25.2 78.9444444,23.7 78.2444444,22.5 C77.5444444,21.3 76.0444444,20.9 74.8444444,21.6 Z" id="Shape" opacity="0.119999997"></path>
                <path d="M114.762698,107.131765 L109.61924,110.06234 L109.61924,104.201191 C109.61924,103.363884 108.961356,102.706 108.124049,102.706 C107.286742,102.706 106.628858,103.363884 106.628858,104.201191 L106.628858,111.796761 L94.966368,118.555025 L94.966368,105.038498 L101.545209,101.210808 C102.2629,100.792155 102.502131,99.8950403 102.083477,99.1773486 C101.664824,98.4596569 100.767709,98.2204264 100.050018,98.6390798 L94.966368,101.569654 L94.966368,95.7085054 C94.966368,94.8711984 94.3084839,94.2133143 93.4711769,94.2133143 C92.6338699,94.2133143 91.9759859,94.8711984 91.9759859,95.7085054 L91.9759859,101.569654 L86.8923363,98.6390798 C86.1746446,98.2204264 85.27753,98.4596569 84.8588765,99.1773486 C84.440223,99.8950403 84.6794535,100.792155 85.3971452,101.210808 L91.9759859,105.038498 L91.9759859,118.555025 L80.3134956,111.796761 L80.3134956,104.201191 C80.3134956,103.363884 79.6556116,102.706 78.8183046,102.706 C77.9809976,102.706 77.3231135,103.363884 77.3231135,104.201191 L77.3231135,110.06234 L72.2394639,107.131765 C71.5217722,106.713112 70.6246576,106.952342 70.2060041,107.670034 C69.7873506,108.387726 70.0265812,109.28484 70.7442729,109.703494 L75.8279225,112.634068 L70.7442729,115.564643 C70.0265812,115.983296 69.7873506,116.880411 70.2060041,117.598102 C70.5050423,118.076564 70.9835035,118.375602 71.5217722,118.375602 C71.7610028,118.375602 72.060041,118.315794 72.2394639,118.196179 L78.8183046,114.36849 L90.4807948,121.126753 L78.8183046,127.885017 L72.2394639,124.057328 C71.5217722,123.638674 70.6246576,123.877905 70.2060041,124.595597 C69.7873506,125.313288 70.0265812,126.210403 70.7442729,126.629056 L75.8279225,129.559631 L70.7442729,132.490205 C70.0265812,132.908859 69.7873506,133.805973 70.2060041,134.523665 C70.5050423,135.002126 70.9835035,135.301165 71.5217722,135.301165 C71.7610028,135.301165 72.060041,135.241357 72.2394639,135.121742 L77.3231135,132.191167 L77.3231135,138.052316 C77.3231135,138.889623 77.9809976,139.547507 78.8183046,139.547507 C79.6556116,139.547507 80.3134956,138.889623 80.3134956,138.052316 L80.3134956,130.456746 L91.9759859,123.698482 L91.9759859,137.215009 L85.3971452,141.042698 C84.6794535,141.461352 84.440223,142.358466 84.8588765,143.076158 C85.1579147,143.554619 85.6363758,143.853657 86.1746446,143.853657 C86.4138752,143.853657 86.7129134,143.79385 86.8923363,143.674234 L91.9759859,140.74366 L91.9759859,146.604809 C91.9759859,147.442116 92.6338699,148.1 93.4711769,148.1 C94.3084839,148.1 94.966368,147.442116 94.966368,146.604809 L94.966368,140.74366 L100.050018,143.674234 C100.289248,143.79385 100.528479,143.853657 100.767709,143.853657 C101.305978,143.853657 101.784439,143.614427 102.083477,143.076158 C102.502131,142.358466 102.2629,141.461352 101.545209,141.042698 L94.966368,137.215009 L94.966368,123.698482 L106.628858,130.456746 L106.628858,138.052316 C106.628858,138.889623 107.286742,139.547507 108.124049,139.547507 C108.961356,139.547507 109.61924,138.889623 109.61924,138.052316 L109.61924,132.191167 L114.70289,135.121742 C114.942121,135.241357 115.181351,135.301165 115.420582,135.301165 C115.95885,135.301165 116.437312,135.061934 116.73635,134.523665 C117.155003,133.805973 116.915773,132.908859 116.198081,132.490205 L111.114431,129.559631 L116.198081,126.629056 C116.915773,126.210403 117.155003,125.313288 116.73635,124.595597 C116.317696,123.877905 115.420582,123.638674 114.70289,124.057328 L108.124049,127.885017 L96.4615591,121.126753 L108.124049,114.36849 L114.70289,118.196179 C114.942121,118.315794 115.181351,118.375602 115.420582,118.375602 C115.95885,118.375602 116.437312,118.136371 116.73635,117.598102 C117.155003,116.880411 116.915773,115.983296 116.198081,115.564643 L111.114431,112.634068 L116.198081,109.703494 C116.97558,109.28484 117.214811,108.387726 116.796157,107.670034 C116.377504,106.952342 115.480389,106.713112 114.762698,107.131765 Z" id="Shape" opacity="0.119999997"></path>
                <path d="M40.4767303,153.008855 L36.9748019,155.00414 L36.9748019,151.01357 C36.9748019,150.443489 36.5268809,149.995568 35.9567995,149.995568 C35.3867182,149.995568 34.9387971,150.443489 34.9387971,151.01357 L34.9387971,156.185023 L26.9983782,160.786394 L26.9983782,151.583652 L31.4775889,148.977566 C31.96623,148.692525 32.1291104,148.081724 31.8440697,147.593082 C31.5590291,147.104441 30.9482276,146.941561 30.4595864,147.226601 L26.9983782,149.221886 L26.9983782,145.231317 C26.9983782,144.661235 26.5504571,144.213314 25.9803758,144.213314 C25.4102944,144.213314 24.9623734,144.661235 24.9623734,145.231317 L24.9623734,149.221886 L21.5011651,147.226601 C21.012524,146.941561 20.4017225,147.104441 20.1166818,147.593082 C19.8316412,148.081724 19.9945216,148.692525 20.4831627,148.977566 L24.9623734,151.583652 L24.9623734,160.786394 L17.0219545,156.185023 L17.0219545,151.01357 C17.0219545,150.443489 16.5740334,149.995568 16.0039521,149.995568 C15.4338707,149.995568 14.9859496,150.443489 14.9859496,151.01357 L14.9859496,155.00414 L11.5247414,153.008855 C11.0361002,152.723815 10.4252988,152.886695 10.1402581,153.375336 C9.85521743,153.863977 10.0180978,154.474779 10.506739,154.759819 L13.9679472,156.755104 L10.506739,158.750389 C10.0180978,159.03543 9.85521743,159.646231 10.1402581,160.134872 C10.3438586,160.460633 10.6696194,160.664233 11.0361002,160.664233 C11.1989806,160.664233 11.4025811,160.623513 11.5247414,160.542073 L16.0039521,157.935987 L23.9443709,162.537358 L16.0039521,167.138729 L11.5247414,164.532643 C11.0361002,164.247602 10.4252988,164.410482 10.1402581,164.899124 C9.85521743,165.387765 10.0180978,165.998566 10.506739,166.283607 L13.9679472,168.278892 L10.506739,170.274176 C10.0180978,170.559217 9.85521743,171.170018 10.1402581,171.65866 C10.3438586,171.98442 10.6696194,172.188021 11.0361002,172.188021 C11.1989806,172.188021 11.4025811,172.147301 11.5247414,172.065861 L14.9859496,170.070576 L14.9859496,174.061145 C14.9859496,174.631227 15.4338707,175.079148 16.0039521,175.079148 C16.5740334,175.079148 17.0219545,174.631227 17.0219545,174.061145 L17.0219545,168.889693 L24.9623734,164.288322 L24.9623734,173.491064 L20.4831627,176.09715 C19.9945216,176.382191 19.8316412,176.992992 20.1166818,177.481633 C20.3202823,177.807394 20.6460431,178.010995 21.012524,178.010995 C21.1754044,178.010995 21.3790048,177.970275 21.5011651,177.888834 L24.9623734,175.89355 L24.9623734,179.884119 C24.9623734,180.454201 25.4102944,180.902122 25.9803758,180.902122 C26.5504571,180.902122 26.9983782,180.454201 26.9983782,179.884119 L26.9983782,175.89355 L30.4595864,177.888834 C30.6224668,177.970275 30.7853472,178.010995 30.9482276,178.010995 C31.3147085,178.010995 31.6404693,177.848114 31.8440697,177.481633 C32.1291104,176.992992 31.96623,176.382191 31.4775889,176.09715 L26.9983782,173.491064 L26.9983782,164.288322 L34.9387971,168.889693 L34.9387971,174.061145 C34.9387971,174.631227 35.3867182,175.079148 35.9567995,175.079148 C36.5268809,175.079148 36.9748019,174.631227 36.9748019,174.061145 L36.9748019,170.070576 L40.4360102,172.065861 C40.5988906,172.147301 40.761771,172.188021 40.9246513,172.188021 C41.2911322,172.188021 41.616893,172.02514 41.8204935,171.65866 C42.1055341,171.170018 41.9426538,170.559217 41.4540126,170.274176 L37.9928044,168.278892 L41.4540126,166.283607 C41.9426538,165.998566 42.1055341,165.387765 41.8204935,164.899124 C41.5354528,164.410482 40.9246513,164.247602 40.4360102,164.532643 L35.9567995,167.138729 L28.0163806,162.537358 L35.9567995,157.935987 L40.4360102,160.542073 C40.5988906,160.623513 40.761771,160.664233 40.9246513,160.664233 C41.2911322,160.664233 41.616893,160.501353 41.8204935,160.134872 C42.1055341,159.646231 41.9426538,159.03543 41.4540126,158.750389 L37.9928044,156.755104 L41.4540126,154.759819 C41.9833739,154.474779 42.1462542,153.863977 41.8612136,153.375336 C41.5761729,152.886695 40.9653714,152.723815 40.4767303,153.008855 Z" id="Shape" opacity="0.115452423"></path>
            </g>
        </g>
    </g>
</svg>