<?xml version="1.0" encoding="UTF-8" standalone="no"?>
<svg width="49px" height="76px" viewBox="0 0 49 76" version="1.1" xmlns="http://www.w3.org/2000/svg" xmlns:xlink="http://www.w3.org/1999/xlink">
    <!-- Generator: Sketch 41 (35326) - http://www.bohemiancoding.com/sketch -->
    <title>snowflakes</title>
    <desc>Created with Sketch.</desc>
    <defs></defs>
    <g id="Welcome" stroke="none" stroke-width="1" fill="none" fill-rule="evenodd" opacity="0.597014925">
        <g id="Desktop" transform="translate(-452.000000, -331.000000)" fill="#FFFFFF">
            <g id="header-snowflakes" transform="translate(117.000000, 130.000000)">
                <g id="snowflakes" transform="translate(335.000000, 201.000000)">
                    <path d="M31.3451092,9.04615385 L27.7433998,11.0982906 L27.7433998,6.99401709 C27.7433998,6.40769231 27.282716,5.94700855 26.6963913,5.94700855 C26.1100665,5.94700855 25.6493827,6.40769231 25.6493827,6.99401709 L25.6493827,12.3128205 L17.482716,17.0452991 L17.482716,7.58034188 L22.0895537,4.9 C22.5921178,4.60683761 22.7596391,3.97863248 22.4664767,3.47606838 C22.1733143,2.97350427 21.5451092,2.80598291 21.0425451,3.0991453 L17.482716,5.15128205 L17.482716,1.04700855 C17.482716,0.460683761 17.0220323,0 16.4357075,0 C15.8493827,0 15.388699,0.460683761 15.388699,1.04700855 L15.388699,5.15128205 L11.8288699,3.0991453 C11.3263058,2.80598291 10.6981007,2.97350427 10.4049383,3.47606838 C10.1117759,3.97863248 10.2792972,4.60683761 10.7818613,4.9 L15.388699,7.58034188 L15.388699,17.0452991 L7.22203229,12.3128205 L7.22203229,6.99401709 C7.22203229,6.40769231 6.76134853,5.94700855 6.17502374,5.94700855 C5.58869896,5.94700855 5.12801519,6.40769231 5.12801519,6.99401709 L5.12801519,11.0982906 L1.56818613,9.04615385 C1.06562203,8.75299145 0.437416904,8.92051282 0.144254511,9.42307692 C-0.148907882,9.92564103 0.0186134853,10.5538462 0.521177588,10.8470085 L4.08100665,12.8991453 L0.521177588,14.9512821 C0.0186134853,15.2444444 -0.148907882,15.8726496 0.144254511,16.3752137 C0.35365622,16.7102564 0.688698955,16.9196581 1.06562203,16.9196581 C1.2331434,16.9196581 1.44254511,16.8777778 1.56818613,16.7940171 L6.17502374,14.1136752 L14.3416904,18.8461538 L6.17502374,23.5786325 L1.56818613,20.8982906 C1.06562203,20.6051282 0.437416904,20.7726496 0.144254511,21.2752137 C-0.148907882,21.7777778 0.0186134853,22.4059829 0.521177588,22.6991453 L4.08100665,24.7512821 L0.521177588,26.8034188 C0.0186134853,27.0965812 -0.148907882,27.7247863 0.144254511,28.2273504 C0.35365622,28.5623932 0.688698955,28.7717949 1.06562203,28.7717949 C1.2331434,28.7717949 1.44254511,28.7299145 1.56818613,28.6461538 L5.12801519,26.5940171 L5.12801519,30.6982906 C5.12801519,31.2846154 5.58869896,31.7452991 6.17502374,31.7452991 C6.76134853,31.7452991 7.22203229,31.2846154 7.22203229,30.6982906 L7.22203229,25.3794872 L15.388699,20.6470085 L15.388699,30.1119658 L10.7818613,32.7923077 C10.2792972,33.0854701 10.1117759,33.7136752 10.4049383,34.2162393 C10.61434,34.5512821 10.9493827,34.7606838 11.3263058,34.7606838 C11.4938272,34.7606838 11.7032289,34.7188034 11.8288699,34.6350427 L15.388699,32.582906 L15.388699,36.6871795 C15.388699,37.2735043 15.8493827,37.734188 16.4357075,37.734188 C17.0220323,37.734188 17.482716,37.2735043 17.482716,36.6871795 L17.482716,32.582906 L21.0425451,34.6350427 C21.2100665,34.7188034 21.3775878,34.7606838 21.5451092,34.7606838 C21.9220323,34.7606838 22.257075,34.5931624 22.4664767,34.2162393 C22.7596391,33.7136752 22.5921178,33.0854701 22.0895537,32.7923077 L17.482716,30.1119658 L17.482716,20.6470085 L25.6493827,25.3794872 L25.6493827,30.6982906 C25.6493827,31.2846154 26.1100665,31.7452991 26.6963913,31.7452991 C27.282716,31.7452991 27.7433998,31.2846154 27.7433998,30.6982906 L27.7433998,26.5940171 L31.3032289,28.6461538 C31.4707502,28.7299145 31.6382716,28.7717949 31.805793,28.7717949 C32.182716,28.7717949 32.5177588,28.6042735 32.7271605,28.2273504 C33.0203229,27.7247863 32.8528015,27.0965812 32.3502374,26.8034188 L28.7904084,24.7512821 L32.3502374,22.6991453 C32.8528015,22.4059829 33.0203229,21.7777778 32.7271605,21.2752137 C32.4339981,20.7726496 31.805793,20.6051282 31.3032289,20.8982906 L26.6963913,23.5786325 L18.5297246,18.8461538 L26.6963913,14.1136752 L31.3032289,16.7940171 C31.4707502,16.8777778 31.6382716,16.9196581 31.805793,16.9196581 C32.182716,16.9196581 32.5177588,16.7521368 32.7271605,16.3752137 C33.0203229,15.8726496 32.8528015,15.2444444 32.3502374,14.9512821 L28.7904084,12.8991453 L32.3502374,10.8470085 C32.8946819,10.5538462 33.0622032,9.92564103 32.7690408,9.42307692 C32.4758784,8.92051282 31.8476733,8.75299145 31.3451092,9.04615385 Z" id="Shape" opacity="0.258220616"></path>
                    <path d="M48.0630101,44.8671495 L45.9089126,46.0944841 L45.9089126,43.6398149 C45.9089126,43.2891478 45.6333885,43.0136237 45.2827215,43.0136237 C44.9320545,43.0136237 44.6565304,43.2891478 44.6565304,43.6398149 L44.6565304,46.8208658 L39.7722396,49.6512497 L39.7722396,43.9904819 L42.5274805,42.3874326 C42.8280523,42.2120991 42.9282429,41.8363844 42.7529093,41.5358127 C42.5775758,41.2352409 42.2018612,41.1350504 41.9012894,41.3103839 L39.7722396,42.5377185 L39.7722396,40.0830493 C39.7722396,39.7323822 39.4967155,39.4568581 39.1460485,39.4568581 C38.7953814,39.4568581 38.5198573,39.7323822 38.5198573,40.0830493 L38.5198573,42.5377185 L36.3908075,41.3103839 C36.0902358,41.1350504 35.7145211,41.2352409 35.5391876,41.5358127 C35.3638541,41.8363844 35.4640446,42.2120991 35.7646164,42.3874326 L38.5198573,43.9904819 L38.5198573,49.6512497 L33.6355666,46.8208658 L33.6355666,43.6398149 C33.6355666,43.2891478 33.3600425,43.0136237 33.0093754,43.0136237 C32.6587084,43.0136237 32.3831843,43.2891478 32.3831843,43.6398149 L32.3831843,46.0944841 L30.2541345,44.8671495 C29.9535627,44.6918159 29.5778481,44.7920065 29.4025145,45.0925783 C29.227181,45.39315 29.3273716,45.7688647 29.6279433,45.9441982 L31.7569932,47.1715328 L29.6279433,48.3988674 C29.3273716,48.5742009 29.227181,48.9499156 29.4025145,49.2504873 C29.5277528,49.4508685 29.7281339,49.5761067 29.9535627,49.5761067 C30.0537533,49.5761067 30.1789915,49.5510591 30.2541345,49.5009638 L33.0093754,47.8979145 L37.8936662,50.7282984 L33.0093754,53.5586823 L30.2541345,51.955633 C29.9535627,51.7802995 29.5778481,51.8804901 29.4025145,52.1810618 C29.227181,52.4816336 29.3273716,52.8573482 29.6279433,53.0326818 L31.7569932,54.2600164 L29.6279433,55.487351 C29.3273716,55.6626845 29.227181,56.0383992 29.4025145,56.3389709 C29.5277528,56.5393521 29.7281339,56.6645903 29.9535627,56.6645903 C30.0537533,56.6645903 30.1789915,56.6395426 30.2541345,56.5894473 L32.3831843,55.3621127 L32.3831843,57.816782 C32.3831843,58.167449 32.6587084,58.4429731 33.0093754,58.4429731 C33.3600425,58.4429731 33.6355666,58.167449 33.6355666,57.816782 L33.6355666,54.635731 L38.5198573,51.8053471 L38.5198573,57.4661149 L35.7646164,59.0691642 C35.4640446,59.2444977 35.3638541,59.6202124 35.5391876,59.9207841 C35.6644258,60.1211653 35.864807,60.2464035 36.0902358,60.2464035 C36.1904263,60.2464035 36.3156646,60.2213559 36.3908075,60.1712606 L38.5198573,58.943926 L38.5198573,61.3985952 C38.5198573,61.7492622 38.7953814,62.0247863 39.1460485,62.0247863 C39.4967155,62.0247863 39.7722396,61.7492622 39.7722396,61.3985952 L39.7722396,58.943926 L41.9012894,60.1712606 C42.00148,60.2213559 42.1016706,60.2464035 42.2018612,60.2464035 C42.42729,60.2464035 42.6276711,60.1462129 42.7529093,59.9207841 C42.9282429,59.6202124 42.8280523,59.2444977 42.5274805,59.0691642 L39.7722396,57.4661149 L39.7722396,51.8053471 L44.6565304,54.635731 L44.6565304,57.816782 C44.6565304,58.167449 44.9320545,58.4429731 45.2827215,58.4429731 C45.6333885,58.4429731 45.9089126,58.167449 45.9089126,57.816782 L45.9089126,55.3621127 L48.0379625,56.5894473 C48.138153,56.6395426 48.2383436,56.6645903 48.3385342,56.6645903 C48.563963,56.6645903 48.7643442,56.5643997 48.8895824,56.3389709 C49.0649159,56.0383992 48.9647253,55.6626845 48.6641536,55.487351 L46.5351038,54.2600164 L48.6641536,53.0326818 C48.9647253,52.8573482 49.0649159,52.4816336 48.8895824,52.1810618 C48.7142489,51.8804901 48.3385342,51.7802995 48.0379625,51.955633 L45.2827215,53.5586823 L40.3984307,50.7282984 L45.2827215,47.8979145 L48.0379625,49.5009638 C48.138153,49.5510591 48.2383436,49.5761067 48.3385342,49.5761067 C48.563963,49.5761067 48.7643442,49.4759162 48.8895824,49.2504873 C49.0649159,48.9499156 48.9647253,48.5742009 48.6641536,48.3988674 L46.5351038,47.1715328 L48.6641536,45.9441982 C48.989773,45.7688647 49.0899635,45.39315 48.91463,45.0925783 C48.7392965,44.7920065 48.3635818,44.6918159 48.0630101,44.8671495 Z" id="Shape" opacity="0.258220616"></path>
                    <path d="M16.951793,64.0806317 L15.4851735,64.9162638 L15.4851735,63.2449996 C15.4851735,63.0062476 15.2975826,62.8186567 15.0588306,62.8186567 C14.8200785,62.8186567 14.6324877,63.0062476 14.6324877,63.2449996 L14.6324877,65.4108215 L11.3070131,67.3378914 L11.3070131,63.4837516 L13.1829218,62.3923138 C13.3875664,62.2729378 13.4557813,62.0171321 13.3364053,61.8124875 C13.2170293,61.6078429 12.9612235,61.539628 12.7565789,61.659004 L11.3070131,62.4946361 L11.3070131,60.823372 C11.3070131,60.5846199 11.1194222,60.3970291 10.8806702,60.3970291 C10.6419182,60.3970291 10.4543273,60.5846199 10.4543273,60.823372 L10.4543273,62.4946361 L9.00476147,61.659004 C8.80011688,61.539628 8.54431114,61.6078429 8.42493513,61.8124875 C8.30555912,62.0171321 8.37377398,62.2729378 8.57841857,62.3923138 L10.4543273,63.4837516 L10.4543273,67.3378914 L7.12885273,65.4108215 L7.12885273,63.2449996 C7.12885273,63.0062476 6.94126186,62.8186567 6.70250984,62.8186567 C6.46375782,62.8186567 6.27616694,63.0062476 6.27616694,63.2449996 L6.27616694,64.9162638 L4.8266011,64.0806317 C4.62195651,63.9612557 4.36615078,64.0294705 4.24677476,64.2341151 C4.12739875,64.4387597 4.19561362,64.6945655 4.40025821,64.8139415 L5.84982405,65.6495735 L4.40025821,66.4852056 C4.19561362,66.6045816 4.12739875,66.8603874 4.24677476,67.0650319 C4.33204334,67.2014617 4.46847307,67.2867302 4.62195651,67.2867302 C4.69017137,67.2867302 4.77543995,67.2696765 4.8266011,67.2355691 L6.70250984,66.1441313 L10.0279844,68.0712012 L6.70250984,69.9982711 L4.8266011,68.9068332 C4.62195651,68.7874572 4.36615078,68.8556721 4.24677476,69.0603167 C4.12739875,69.2649613 4.19561362,69.520767 4.40025821,69.640143 L5.84982405,70.4757751 L4.40025821,71.3114072 C4.19561362,71.4307832 4.12739875,71.6865889 4.24677476,71.8912335 C4.33204334,72.0276632 4.46847307,72.1129318 4.62195651,72.1129318 C4.69017137,72.1129318 4.77543995,72.0958781 4.8266011,72.0617707 L6.27616694,71.2261386 L6.27616694,72.8974027 C6.27616694,73.1361548 6.46375782,73.3237456 6.70250984,73.3237456 C6.94126186,73.3237456 7.12885273,73.1361548 7.12885273,72.8974027 L7.12885273,70.7315808 L10.4543273,68.804511 L10.4543273,72.6586507 L8.57841857,73.7500885 C8.37377398,73.8694645 8.30555912,74.1252703 8.42493513,74.3299149 C8.51020371,74.4663446 8.64663344,74.5516132 8.80011688,74.5516132 C8.86833174,74.5516132 8.95360032,74.5345595 9.00476147,74.500452 L10.4543273,73.66482 L10.4543273,75.3360841 C10.4543273,75.5748361 10.6419182,75.762427 10.8806702,75.762427 C11.1194222,75.762427 11.3070131,75.5748361 11.3070131,75.3360841 L11.3070131,73.66482 L12.7565789,74.500452 C12.8247938,74.5345595 12.8930087,74.5516132 12.9612235,74.5516132 C13.114707,74.5516132 13.2511367,74.4833983 13.3364053,74.3299149 C13.4557813,74.1252703 13.3875664,73.8694645 13.1829218,73.7500885 L11.3070131,72.6586507 L11.3070131,68.804511 L14.6324877,70.7315808 L14.6324877,72.8974027 C14.6324877,73.1361548 14.8200785,73.3237456 15.0588306,73.3237456 C15.2975826,73.3237456 15.4851735,73.1361548 15.4851735,72.8974027 L15.4851735,71.2261386 L16.9347393,72.0617707 C17.0029542,72.0958781 17.071169,72.1129318 17.1393839,72.1129318 C17.2928673,72.1129318 17.4292971,72.044717 17.5145656,71.8912335 C17.6339417,71.6865889 17.5657268,71.4307832 17.3610822,71.3114072 L15.9115164,70.4757751 L17.3610822,69.640143 C17.5657268,69.520767 17.6339417,69.2649613 17.5145656,69.0603167 C17.3951896,68.8556721 17.1393839,68.7874572 16.9347393,68.9068332 L15.0588306,69.9982711 L11.733356,68.0712012 L15.0588306,66.1441313 L16.9347393,67.2355691 C17.0029542,67.2696765 17.071169,67.2867302 17.1393839,67.2867302 C17.2928673,67.2867302 17.4292971,67.2185154 17.5145656,67.0650319 C17.6339417,66.8603874 17.5657268,66.6045816 17.3610822,66.4852056 L15.9115164,65.6495735 L17.3610822,64.8139415 C17.5827805,64.6945655 17.6509954,64.4387597 17.5316194,64.2341151 C17.4122433,64.0294705 17.1564376,63.9612557 16.951793,64.0806317 Z" id="Shape" opacity="0.258220616"></path>
                </g>
            </g>
        </g>
    </g>
</svg>