<?xml version="1.0" encoding="UTF-8" standalone="no"?>
<svg width="117px" height="156px" viewBox="0 0 117 156" version="1.1" xmlns="http://www.w3.org/2000/svg" xmlns:xlink="http://www.w3.org/1999/xlink">
    <!-- Generator: Sketch 41 (35326) - http://www.bohemiancoding.com/sketch -->
    <title>snowflakes</title>
    <desc>Created with Sketch.</desc>
    <defs></defs>
    <g id="Welcome" stroke="none" stroke-width="1" fill="none" fill-rule="evenodd">
        <g id="Desktop" transform="translate(-572.000000, -130.000000)" fill="#FFFFFF">
            <g id="header-snowflakes" transform="translate(117.000000, 130.000000)">
                <g id="snowflakes" transform="translate(455.000000, 0.000000)">
                    <path d="M54.0773955,15.6066593 L47.863633,19.1470588 L47.863633,12.0662597 C47.863633,11.054717 47.0688494,10.2599334 46.0573067,10.2599334 C45.045764,10.2599334 44.2509804,11.054717 44.2509804,12.0662597 L44.2509804,21.2423973 L30.1616352,29.4069922 L30.1616352,13.0778024 L38.109471,8.4536071 C38.9765076,7.94783574 39.2655198,6.86403996 38.7597484,5.99700333 C38.2539771,5.1299667 37.1701813,4.8409545 36.3031447,5.34672586 L30.1616352,8.88712542 L30.1616352,1.8063263 C30.1616352,0.794783574 29.3668516,0 28.3553089,0 C27.3437662,0 26.5489826,0.794783574 26.5489826,1.8063263 L26.5489826,8.88712542 L20.4074732,5.34672586 C19.5404366,4.8409545 18.4566408,5.1299667 17.9508694,5.99700333 C17.445098,6.86403996 17.7341102,7.94783574 18.6011469,8.4536071 L26.5489826,13.0778024 L26.5489826,29.4069922 L12.4596374,21.2423973 L12.4596374,12.0662597 C12.4596374,11.054717 11.6648539,10.2599334 10.6533111,10.2599334 C9.64176841,10.2599334 8.84698483,11.054717 8.84698483,12.0662597 L8.84698483,19.1470588 L2.7054754,15.6066593 C1.83843877,15.1008879 0.754642989,15.3899001 0.248871624,16.2569367 C-0.256899741,17.1239734 0.0321124676,18.2077691 0.899149094,18.7135405 L7.04065853,22.2539401 L0.899149094,25.7943396 C0.0321124676,26.300111 -0.256899741,27.3839068 0.248871624,28.2509434 C0.610136885,28.8289678 1.1881613,29.1902331 1.83843877,29.1902331 C2.12745098,29.1902331 2.48871624,29.11798 2.7054754,28.9734739 L10.6533111,24.3492786 L24.7426563,32.5138735 L10.6533111,40.6784684 L2.7054754,36.054273 C1.83843877,35.5485017 0.754642989,35.8375139 0.248871624,36.7045505 C-0.256899741,37.5715871 0.0321124676,38.6553829 0.899149094,39.1611543 L7.04065853,42.7015538 L0.899149094,46.2419534 C0.0321124676,46.7477248 -0.256899741,47.8315205 0.248871624,48.6985572 C0.610136885,49.2765816 1.1881613,49.6378468 1.83843877,49.6378468 C2.12745098,49.6378468 2.48871624,49.5655938 2.7054754,49.4210877 L8.84698483,45.8806881 L8.84698483,52.9614872 C8.84698483,53.97303 9.64176841,54.7678135 10.6533111,54.7678135 C11.6648539,54.7678135 12.4596374,53.97303 12.4596374,52.9614872 L12.4596374,43.7853496 L26.5489826,35.6207547 L26.5489826,51.9499445 L18.6011469,56.5741398 C17.7341102,57.0799112 17.445098,58.163707 17.9508694,59.0307436 C18.3121347,59.608768 18.8901591,59.9700333 19.5404366,59.9700333 C19.8294488,59.9700333 20.190714,59.8977802 20.4074732,59.7532741 L26.5489826,56.2128746 L26.5489826,63.2936737 C26.5489826,64.3052164 27.3437662,65.1 28.3553089,65.1 C29.3668516,65.1 30.1616352,64.3052164 30.1616352,63.2936737 L30.1616352,56.2128746 L36.3031447,59.7532741 C36.5921569,59.8977802 36.8811691,59.9700333 37.1701813,59.9700333 C37.8204587,59.9700333 38.3984832,59.6810211 38.7597484,59.0307436 C39.2655198,58.163707 38.9765076,57.0799112 38.109471,56.5741398 L30.1616352,51.9499445 L30.1616352,35.6207547 L44.2509804,43.7853496 L44.2509804,52.9614872 C44.2509804,53.97303 45.045764,54.7678135 46.0573067,54.7678135 C47.0688494,54.7678135 47.863633,53.97303 47.863633,52.9614872 L47.863633,45.8806881 L54.0051424,49.4210877 C54.2941546,49.5655938 54.5831669,49.6378468 54.8721791,49.6378468 C55.5224565,49.6378468 56.1004809,49.3488346 56.4617462,48.6985572 C56.9675176,47.8315205 56.6785054,46.7477248 55.8114687,46.2419534 L49.6699593,42.7015538 L55.8114687,39.1611543 C56.6785054,38.6553829 56.9675176,37.5715871 56.4617462,36.7045505 C55.9559748,35.8375139 54.8721791,35.5485017 54.0051424,36.054273 L46.0573067,40.6784684 L31.9679615,32.5138735 L46.0573067,24.3492786 L54.0051424,28.9734739 C54.2941546,29.11798 54.5831669,29.1902331 54.8721791,29.1902331 C55.5224565,29.1902331 56.1004809,28.9012209 56.4617462,28.2509434 C56.9675176,27.3839068 56.6785054,26.300111 55.8114687,25.7943396 L49.6699593,22.2539401 L55.8114687,18.7135405 C56.7507584,18.2077691 57.0397706,17.1239734 56.5339993,16.2569367 C56.0282279,15.3899001 54.9444321,15.1008879 54.0773955,15.6066593 Z" id="Shape" opacity="0.119999997"></path>
                    <path d="M114.762698,82.131765 L109.61924,85.0623395 L109.61924,79.2011906 C109.61924,78.3638836 108.961356,77.7059995 108.124049,77.7059995 C107.286742,77.7059995 106.628858,78.3638836 106.628858,79.2011906 L106.628858,86.7967611 L94.966368,93.5550247 L94.966368,80.0384976 L101.545209,76.2108085 C102.2629,75.792155 102.502131,74.8950403 102.083477,74.1773486 C101.664824,73.4596569 100.767709,73.2204264 100.050018,73.6390798 L94.966368,76.5696543 L94.966368,70.7085054 C94.966368,69.8711984 94.3084839,69.2133143 93.4711769,69.2133143 C92.6338699,69.2133143 91.9759859,69.8711984 91.9759859,70.7085054 L91.9759859,76.5696543 L86.8923363,73.6390798 C86.1746446,73.2204264 85.27753,73.4596569 84.8588765,74.1773486 C84.440223,74.8950403 84.6794535,75.792155 85.3971452,76.2108085 L91.9759859,80.0384976 L91.9759859,93.5550247 L80.3134956,86.7967611 L80.3134956,79.2011906 C80.3134956,78.3638836 79.6556116,77.7059995 78.8183046,77.7059995 C77.9809976,77.7059995 77.3231135,78.3638836 77.3231135,79.2011906 L77.3231135,85.0623395 L72.2394639,82.131765 C71.5217722,81.7131116 70.6246576,81.9523421 70.2060041,82.6700338 C69.7873506,83.3877255 70.0265812,84.2848402 70.7442729,84.7034937 L75.8279225,87.6340681 L70.7442729,90.5646426 C70.0265812,90.9832961 69.7873506,91.8804107 70.2060041,92.5981024 C70.5050423,93.0765636 70.9835035,93.3756018 71.5217722,93.3756018 C71.7610028,93.3756018 72.060041,93.3157942 72.2394639,93.1961789 L78.8183046,89.3684898 L90.4807948,96.1267533 L78.8183046,102.885017 L72.2394639,99.0573278 C71.5217722,98.6386743 70.6246576,98.8779049 70.2060041,99.5955966 C69.7873506,100.313288 70.0265812,101.210403 70.7442729,101.629056 L75.8279225,104.559631 L70.7442729,107.490205 C70.0265812,107.908859 69.7873506,108.805973 70.2060041,109.523665 C70.5050423,110.002126 70.9835035,110.301165 71.5217722,110.301165 C71.7610028,110.301165 72.060041,110.241357 72.2394639,110.121742 L77.3231135,107.191167 L77.3231135,113.052316 C77.3231135,113.889623 77.9809976,114.547507 78.8183046,114.547507 C79.6556116,114.547507 80.3134956,113.889623 80.3134956,113.052316 L80.3134956,105.456746 L91.9759859,98.698482 L91.9759859,112.215009 L85.3971452,116.042698 C84.6794535,116.461352 84.440223,117.358466 84.8588765,118.076158 C85.1579147,118.554619 85.6363758,118.853657 86.1746446,118.853657 C86.4138752,118.853657 86.7129134,118.79385 86.8923363,118.674234 L91.9759859,115.74366 L91.9759859,121.604809 C91.9759859,122.442116 92.6338699,123.1 93.4711769,123.1 C94.3084839,123.1 94.966368,122.442116 94.966368,121.604809 L94.966368,115.74366 L100.050018,118.674234 C100.289248,118.79385 100.528479,118.853657 100.767709,118.853657 C101.305978,118.853657 101.784439,118.614427 102.083477,118.076158 C102.502131,117.358466 102.2629,116.461352 101.545209,116.042698 L94.966368,112.215009 L94.966368,98.698482 L106.628858,105.456746 L106.628858,113.052316 C106.628858,113.889623 107.286742,114.547507 108.124049,114.547507 C108.961356,114.547507 109.61924,113.889623 109.61924,113.052316 L109.61924,107.191167 L114.70289,110.121742 C114.942121,110.241357 115.181351,110.301165 115.420582,110.301165 C115.95885,110.301165 116.437312,110.061934 116.73635,109.523665 C117.155003,108.805973 116.915773,107.908859 116.198081,107.490205 L111.114431,104.559631 L116.198081,101.629056 C116.915773,101.210403 117.155003,100.313288 116.73635,99.5955966 C116.317696,98.8779049 115.420582,98.6386743 114.70289,99.0573278 L108.124049,102.885017 L96.4615591,96.1267533 L108.124049,89.3684898 L114.70289,93.1961789 C114.942121,93.3157942 115.181351,93.3756018 115.420582,93.3756018 C115.95885,93.3756018 116.437312,93.1363712 116.73635,92.5981024 C117.155003,91.8804107 116.915773,90.9832961 116.198081,90.5646426 L111.114431,87.6340681 L116.198081,84.7034937 C116.97558,84.2848402 117.214811,83.3877255 116.796157,82.6700338 C116.377504,81.9523421 115.480389,81.7131116 114.762698,82.131765 Z" id="Shape" opacity="0.119999997"></path>
                    <path d="M40.4767303,128.008855 L36.9748019,130.00414 L36.9748019,126.01357 C36.9748019,125.443489 36.5268809,124.995568 35.9567995,124.995568 C35.3867182,124.995568 34.9387971,125.443489 34.9387971,126.01357 L34.9387971,131.185023 L26.9983782,135.786394 L26.9983782,126.583652 L31.4775889,123.977566 C31.96623,123.692525 32.1291104,123.081724 31.8440697,122.593082 C31.5590291,122.104441 30.9482276,121.941561 30.4595864,122.226601 L26.9983782,124.221886 L26.9983782,120.231317 C26.9983782,119.661235 26.5504571,119.213314 25.9803758,119.213314 C25.4102944,119.213314 24.9623734,119.661235 24.9623734,120.231317 L24.9623734,124.221886 L21.5011651,122.226601 C21.012524,121.941561 20.4017225,122.104441 20.1166818,122.593082 C19.8316412,123.081724 19.9945216,123.692525 20.4831627,123.977566 L24.9623734,126.583652 L24.9623734,135.786394 L17.0219545,131.185023 L17.0219545,126.01357 C17.0219545,125.443489 16.5740334,124.995568 16.0039521,124.995568 C15.4338707,124.995568 14.9859496,125.443489 14.9859496,126.01357 L14.9859496,130.00414 L11.5247414,128.008855 C11.0361002,127.723815 10.4252988,127.886695 10.1402581,128.375336 C9.85521743,128.863977 10.0180978,129.474779 10.506739,129.759819 L13.9679472,131.755104 L10.506739,133.750389 C10.0180978,134.03543 9.85521743,134.646231 10.1402581,135.134872 C10.3438586,135.460633 10.6696194,135.664233 11.0361002,135.664233 C11.1989806,135.664233 11.4025811,135.623513 11.5247414,135.542073 L16.0039521,132.935987 L23.9443709,137.537358 L16.0039521,142.138729 L11.5247414,139.532643 C11.0361002,139.247602 10.4252988,139.410482 10.1402581,139.899124 C9.85521743,140.387765 10.0180978,140.998566 10.506739,141.283607 L13.9679472,143.278892 L10.506739,145.274176 C10.0180978,145.559217 9.85521743,146.170018 10.1402581,146.65866 C10.3438586,146.98442 10.6696194,147.188021 11.0361002,147.188021 C11.1989806,147.188021 11.4025811,147.147301 11.5247414,147.065861 L14.9859496,145.070576 L14.9859496,149.061145 C14.9859496,149.631227 15.4338707,150.079148 16.0039521,150.079148 C16.5740334,150.079148 17.0219545,149.631227 17.0219545,149.061145 L17.0219545,143.889693 L24.9623734,139.288322 L24.9623734,148.491064 L20.4831627,151.09715 C19.9945216,151.382191 19.8316412,151.992992 20.1166818,152.481633 C20.3202823,152.807394 20.6460431,153.010995 21.012524,153.010995 C21.1754044,153.010995 21.3790048,152.970275 21.5011651,152.888834 L24.9623734,150.89355 L24.9623734,154.884119 C24.9623734,155.454201 25.4102944,155.902122 25.9803758,155.902122 C26.5504571,155.902122 26.9983782,155.454201 26.9983782,154.884119 L26.9983782,150.89355 L30.4595864,152.888834 C30.6224668,152.970275 30.7853472,153.010995 30.9482276,153.010995 C31.3147085,153.010995 31.6404693,152.848114 31.8440697,152.481633 C32.1291104,151.992992 31.96623,151.382191 31.4775889,151.09715 L26.9983782,148.491064 L26.9983782,139.288322 L34.9387971,143.889693 L34.9387971,149.061145 C34.9387971,149.631227 35.3867182,150.079148 35.9567995,150.079148 C36.5268809,150.079148 36.9748019,149.631227 36.9748019,149.061145 L36.9748019,145.070576 L40.4360102,147.065861 C40.5988906,147.147301 40.761771,147.188021 40.9246513,147.188021 C41.2911322,147.188021 41.616893,147.02514 41.8204935,146.65866 C42.1055341,146.170018 41.9426538,145.559217 41.4540126,145.274176 L37.9928044,143.278892 L41.4540126,141.283607 C41.9426538,140.998566 42.1055341,140.387765 41.8204935,139.899124 C41.5354528,139.410482 40.9246513,139.247602 40.4360102,139.532643 L35.9567995,142.138729 L28.0163806,137.537358 L35.9567995,132.935987 L40.4360102,135.542073 C40.5988906,135.623513 40.761771,135.664233 40.9246513,135.664233 C41.2911322,135.664233 41.616893,135.501353 41.8204935,135.134872 C42.1055341,134.646231 41.9426538,134.03543 41.4540126,133.750389 L37.9928044,131.755104 L41.4540126,129.759819 C41.9833739,129.474779 42.1462542,128.863977 41.8612136,128.375336 C41.5761729,127.886695 40.9653714,127.723815 40.4767303,128.008855 Z" id="Shape" opacity="0.115452423"></path>
                </g>
            </g>
        </g>
    </g>
</svg>